<svg width="16" height="20" viewBox="0 0 16 20" fill="none" xmlns="http://www.w3.org/2000/svg">
<path d="M10.6048 3.441C11.2157 2.65239 11.6788 1.53777 11.5113 0.400024C10.5128 0.469413 9.34574 1.10823 8.66477 1.94089C8.04401 2.69535 7.53383 3.81768 7.73309 4.90697C8.82461 4.94111 9.95117 4.28688 10.6048 3.441ZM16 14.1433C15.5632 15.117 15.353 15.552 14.7902 16.4144C14.0053 17.6183 12.8984 19.1173 11.5255 19.1283C10.307 19.1415 9.99278 18.3298 8.33852 18.3397C6.68426 18.3485 6.33939 19.1437 5.11868 19.1316C3.74688 19.1195 2.69805 17.767 1.91308 16.5631C-0.283114 13.1994 -0.514119 9.2509 0.840162 7.15053C1.80359 5.65923 3.32319 4.78691 4.75082 4.78691C6.20364 4.78691 7.1178 5.58874 8.321 5.58874C9.48807 5.58874 10.1986 4.78471 11.8791 4.78471C13.1513 4.78471 14.499 5.4819 15.4581 6.68463C12.3138 8.41824 12.8229 12.9351 16 14.1433Z" fill="#0B0B0A"/>
</svg>
