<svg width="20" height="14" viewBox="0 0 20 14" fill="none" xmlns="http://www.w3.org/2000/svg">
<path d="M18.8272 4.53641L15.1909 0.900047C15.1061 0.815284 15.0055 0.748047 14.8947 0.702174C14.784 0.656301 14.6653 0.63269 14.5454 0.63269C14.3033 0.63269 14.0712 0.728861 13.9 0.900047C13.7288 1.07123 13.6326 1.30341 13.6326 1.5455C13.6326 1.78759 13.7288 2.01977 13.9 2.19096L15.9909 4.27277H5.45451C5.21341 4.27277 4.98218 4.36855 4.81169 4.53904C4.6412 4.70953 4.54542 4.94076 4.54542 5.18186C4.54542 5.42297 4.6412 5.6542 4.81169 5.82469C4.98218 5.99518 5.21341 6.09096 5.45451 6.09096H18.1818C18.3613 6.09006 18.5365 6.03606 18.6853 5.93575C18.8341 5.83545 18.9499 5.69334 19.0181 5.52732C19.0878 5.36176 19.1068 5.1793 19.0728 5.00294C19.0388 4.82659 18.9534 4.66425 18.8272 4.53641V4.53641ZM14.5454 7.90914H1.81815C1.63867 7.91003 1.46347 7.96404 1.31464 8.06434C1.1658 8.16464 1.04998 8.30676 0.981784 8.47277C0.912166 8.63833 0.893146 8.8208 0.927122 8.99715C0.961099 9.1735 1.04655 9.33584 1.17269 9.46368L4.80906 13.1C4.89357 13.1853 4.99412 13.2529 5.1049 13.299C5.21568 13.3452 5.3345 13.369 5.45451 13.369C5.57452 13.369 5.69335 13.3452 5.80413 13.299C5.91491 13.2529 6.01545 13.1853 6.09997 13.1C6.18517 13.0155 6.25281 12.915 6.29896 12.8042C6.34511 12.6934 6.36887 12.5746 6.36887 12.4546C6.36887 12.3346 6.34511 12.2158 6.29896 12.105C6.25281 11.9942 6.18517 11.8937 6.09997 11.8091L4.00906 9.72732H14.5454C14.7865 9.72732 15.0178 9.63154 15.1882 9.46105C15.3587 9.29057 15.4545 9.05933 15.4545 8.81823C15.4545 8.57712 15.3587 8.34589 15.1882 8.1754C15.0178 8.00492 14.7865 7.90914 14.5454 7.90914Z" fill="#787B89"/>
</svg>
