<svg width="16" height="16" viewBox="0 0 16 16" fill="none" xmlns="http://www.w3.org/2000/svg">
<path d="M13.4067 11.66L10 5.82004V2.66671H10.6667C10.8435 2.66671 11.0131 2.59647 11.1381 2.47145C11.2631 2.34642 11.3333 2.17685 11.3333 2.00004C11.3333 1.82323 11.2631 1.65366 11.1381 1.52864C11.0131 1.40361 10.8435 1.33337 10.6667 1.33337H5.33335C5.15654 1.33337 4.98697 1.40361 4.86194 1.52864C4.73692 1.65366 4.66668 1.82323 4.66668 2.00004C4.66668 2.17685 4.73692 2.34642 4.86194 2.47145C4.98697 2.59647 5.15654 2.66671 5.33335 2.66671H6.00002V5.82004L2.59335 11.66C2.41638 11.9639 2.32263 12.309 2.32154 12.6605C2.32046 13.0121 2.41208 13.3578 2.58718 13.6627C2.76228 13.9676 3.01466 14.221 3.31888 14.3972C3.6231 14.5735 3.96842 14.6664 4.32002 14.6667H11.6533C12.0049 14.6664 12.3503 14.5735 12.6545 14.3972C12.9587 14.221 13.2111 13.9676 13.3862 13.6627C13.5613 13.3578 13.6529 13.0121 13.6518 12.6605C13.6507 12.309 13.557 11.9639 13.38 11.66H13.4067ZM7.24002 6.32671C7.29882 6.22771 7.33097 6.11516 7.33335 6.00004V2.66671H8.66668V6.00004C8.6679 6.11743 8.7001 6.23242 8.76002 6.33337L9.33335 7.33337H6.66668L7.24002 6.32671ZM12.2533 12.9934C12.1952 13.0941 12.1117 13.1779 12.0111 13.2364C11.9105 13.2949 11.7964 13.326 11.68 13.3267H4.34668C4.23034 13.326 4.11621 13.2949 4.01563 13.2364C3.91505 13.1779 3.83152 13.0941 3.77335 12.9934C3.71484 12.892 3.68403 12.7771 3.68403 12.66C3.68403 12.543 3.71484 12.4281 3.77335 12.3267L5.88668 8.66671H10.12L12.2533 12.3334C12.3119 12.4347 12.3427 12.5497 12.3427 12.6667C12.3427 12.7837 12.3119 12.8987 12.2533 13V12.9934ZM6.66668 10C6.53483 10 6.40594 10.0391 6.2963 10.1124C6.18667 10.1856 6.10122 10.2898 6.05076 10.4116C6.0003 10.5334 5.9871 10.6674 6.01283 10.7968C6.03855 10.9261 6.10204 11.0449 6.19528 11.1381C6.28851 11.2313 6.4073 11.2948 6.53662 11.3206C6.66594 11.3463 6.79999 11.3331 6.92181 11.2826C7.04362 11.2322 7.14774 11.1467 7.221 11.0371C7.29425 10.9275 7.33335 10.7986 7.33335 10.6667C7.33335 10.4899 7.26311 10.3203 7.13809 10.1953C7.01306 10.0703 6.84349 10 6.66668 10ZM9.33335 10.6667C9.2015 10.6667 9.0726 10.7058 8.96297 10.7791C8.85334 10.8523 8.76789 10.9564 8.71743 11.0783C8.66697 11.2001 8.65377 11.3341 8.67949 11.4634C8.70522 11.5928 8.76871 11.7115 8.86194 11.8048C8.95518 11.898 9.07397 11.9615 9.20329 11.9872C9.33261 12.013 9.46665 11.9998 9.58847 11.9493C9.71029 11.8988 9.81441 11.8134 9.88766 11.7038C9.96092 11.5941 10 11.4652 10 11.3334C10 11.1566 9.92978 10.987 9.80475 10.862C9.67973 10.7369 9.51016 10.6667 9.33335 10.6667Z" fill="#787B89"/>
</svg>
