<svg width="14" height="14" viewBox="0 0 14 14" fill="none" xmlns="http://www.w3.org/2000/svg">
<path d="M6.99993 2.74754C8.30186 2.74754 9.18008 3.30991 9.68082 3.77984L11.6376 1.86932C10.4358 0.75228 8.87193 0.0666504 6.99993 0.0666504C4.28823 0.0666504 1.9463 1.6228 0.806152 3.88769L3.04793 5.62873C3.6103 3.95702 5.16645 2.74754 6.99993 2.74754Z" fill="#EA4335"/>
<path d="M13.656 7.15405C13.656 6.58398 13.6098 6.16798 13.5096 5.73657H7V8.30961H10.821C10.744 8.94902 10.328 9.91198 9.40356 10.5591L11.5914 12.2539C12.901 11.0444 13.656 9.26487 13.656 7.15405Z" fill="#4285F4"/>
<path d="M3.05569 8.37125C2.90932 7.93984 2.82458 7.47762 2.82458 6.99999C2.82458 6.52236 2.90932 6.06014 3.04798 5.62873L0.806206 3.8877C0.33628 4.82755 0.0666504 5.88295 0.0666504 6.99999C0.0666504 8.11703 0.33628 9.17244 0.806206 10.1123L3.05569 8.37125Z" fill="#FBBC05"/>
<path d="M7.00004 13.9333C8.87204 13.9333 10.4436 13.317 11.5914 12.2539L9.40359 10.5591C8.81811 10.9674 8.03234 11.2524 7.00004 11.2524C5.16656 11.2524 3.61041 10.0429 3.05574 8.37122L0.813965 10.1123C1.95411 12.3771 4.28834 13.9333 7.00004 13.9333Z" fill="#34A853"/>
</svg>
