<svg width="48" height="48" viewBox="0 0 48 48" fill="none" xmlns="http://www.w3.org/2000/svg">
<g clip-path="url(#clip0_664_3674)">
<path d="M48 24C48 10.7452 37.2548 0 24 0C10.7452 0 0 10.7452 0 24C0 37.2548 10.7452 48 24 48C37.2548 48 48 37.2548 48 24Z" fill="#6F6FFB"/>
<path d="M14.25 31.5C16.3211 31.5 18 29.8211 18 27.75C18 25.6789 16.3211 24 14.25 24C12.1789 24 10.5 25.6789 10.5 27.75C10.5 29.8211 12.1789 31.5 14.25 31.5Z" fill="#F0BD70"/>
<path d="M14.25 30.75H27V49.4025C27 49.4025 24.2677 51 20.625 51C16.9823 51 14.25 48.3923 14.25 48.3923V30.75Z" fill="#F0BD70"/>
<path d="M27 40.401C27 44.6415 26.3385 44.2395 22.0372 44.2395C17.736 44.2395 15.7515 40.8022 15.7515 36.5617C15.7515 32.3212 15.588 28.5 19.059 28.5C28.875 28.875 27 36.1605 27 40.401Z" fill="#E9B05B"/>
<path d="M35.1645 27.075C35.1645 33.7665 37.929 41.9948 25.875 41.9948C13.821 41.9948 13.821 33.7665 13.821 27.075C12 19.125 12.375 9.75 24.75 9.75C37.125 9.75 35.1645 20.3827 35.1645 27.075Z" fill="#FFCB7E"/>
<path d="M29.25 30.75H28.5C28.0858 30.75 27.75 31.0858 27.75 31.5C27.75 31.9142 28.0858 32.25 28.5 32.25H29.25C29.6642 32.25 30 31.9142 30 31.5C30 31.0858 29.6642 30.75 29.25 30.75Z" fill="#F0BD70"/>
<path d="M29.25 45H12.75C9.02208 45 6 48.0221 6 51.75V55.5C6 59.2279 9.02208 62.25 12.75 62.25H29.25C32.9779 62.25 36 59.2279 36 55.5V51.75C36 48.0221 32.9779 45 29.25 45Z" fill="#E05A33"/>
<path fill-rule="evenodd" clip-rule="evenodd" d="M35.226 24.3622C35.8485 24.0109 36.3251 23.4488 36.5699 22.7772C36.8146 22.1056 36.8115 21.3687 36.561 20.6992C37.2456 20.3691 37.7795 19.7915 38.0547 19.083C38.3299 18.3745 38.3259 17.588 38.0435 16.8823C37.7612 16.1767 37.2215 15.6045 36.5335 15.2814C35.8456 14.9583 35.0606 14.9084 34.3372 15.1417C35.4 17.8972 35.322 21.3052 35.226 24.3622Z" fill="#47280B"/>
<path fill-rule="evenodd" clip-rule="evenodd" d="M27.9728 17.07C27.2893 17.6709 26.41 18.0016 25.5 18C24.67 18.0014 23.8633 17.7261 23.2073 17.2178C22.7204 17.7044 22.1424 18.0903 21.5063 18.3532C20.8701 18.6161 20.1883 18.751 19.5 18.75C18.9803 18.7504 18.4634 18.6735 17.9663 18.522C17.7708 18.736 17.5454 18.9206 17.2973 19.0703C17.5925 19.4216 17.8032 19.836 17.9132 20.2815C18.0232 20.727 18.0295 21.1919 17.9316 21.6402C17.8337 22.0886 17.6343 22.5085 17.3487 22.8677C17.063 23.2269 16.6988 23.5157 16.284 23.712C16.4078 23.8816 16.4817 24.0824 16.4972 24.2918C16.5128 24.5012 16.4695 24.7107 16.3722 24.8968C16.2749 25.0828 16.1275 25.2379 15.9466 25.3445C15.7657 25.4511 15.5586 25.505 15.3488 25.5C14.9811 26.1398 14.3906 26.6215 13.6901 26.8533C12.9896 27.0851 12.2282 27.0506 11.5516 26.7564C10.8749 26.4622 10.3304 25.9289 10.0221 25.2586C9.71384 24.5882 9.66342 23.8277 9.8805 23.1225C9.60102 22.8443 9.37935 22.5135 9.22823 22.1492C9.07712 21.785 8.99955 21.3944 9 21C9 20.1705 9.33675 19.4198 9.8805 18.8775C9.73564 18.4038 9.71038 17.9015 9.80696 17.4155C9.90355 16.9296 10.119 16.4752 10.434 16.0928C10.0438 15.4053 9.81389 14.6386 9.76131 13.8498C9.70872 13.0611 9.83486 12.2706 10.1303 11.5374C10.4258 10.8042 10.8829 10.1472 11.4676 9.61522C12.0524 9.08329 12.7497 8.69021 13.5075 8.46529C13.4685 7.92629 13.5759 7.38677 13.8182 6.90373C14.0605 6.4207 14.4288 6.01208 14.8841 5.72107C15.3395 5.43005 15.865 5.26743 16.4051 5.25039C16.9453 5.23336 17.48 5.36254 17.9528 5.62429C18.4135 4.82608 19.0764 4.1633 19.8746 3.70262C20.6729 3.24195 21.5784 2.99962 22.5 3.00004C23.5298 3.00004 24.4905 3.29629 25.3013 3.80929C25.8582 3.20937 26.5571 2.75929 27.3337 2.50054C28.1103 2.24179 28.9395 2.18268 29.7449 2.32868C30.5504 2.47467 31.3061 2.82107 31.9425 3.33593C32.5788 3.8508 33.0753 4.51757 33.3863 5.27479C33.783 5.32622 34.1655 5.45649 34.5112 5.65794C34.8568 5.85939 35.1587 6.12794 35.399 6.4478C35.6394 6.76766 35.8133 7.13236 35.9106 7.52044C36.0079 7.90852 36.0265 8.31213 35.9655 8.70754C37.3568 9.73804 38.25 11.334 38.25 13.125C38.25 16.2315 35.5635 18.75 32.25 18.75C30.5753 18.75 29.061 18.1065 27.9728 17.07Z" fill="#47280B"/>
<path d="M22.4468 34.5C22.4468 34.3011 22.5258 34.1103 22.6664 33.9697C22.8071 33.829 22.9979 33.75 23.1968 33.75H30.054C30.2529 33.75 30.4437 33.829 30.5844 33.9697C30.725 34.1103 30.804 34.3011 30.804 34.5C30.804 35.4946 30.4089 36.4484 29.7057 37.1517C29.0024 37.8549 28.0486 38.25 27.054 38.25H26.1968C25.2022 38.25 24.2484 37.8549 23.5451 37.1517C22.8419 36.4484 22.4468 35.4946 22.4468 34.5Z" fill="#66253C"/>
<path fill-rule="evenodd" clip-rule="evenodd" d="M28.3162 38.0325C27.9111 38.177 27.4841 38.2506 27.054 38.25H26.1967C25.2281 38.25 24.2971 37.8753 23.5987 37.2042C22.9002 36.5331 22.4885 35.6179 22.4497 34.65C23.0227 34.4355 23.8732 34.4603 24.7125 34.485C24.9795 34.4925 25.245 34.5 25.5 34.5C27.1575 34.5 28.5 35.6753 28.5 37.125C28.5 37.4438 28.4347 37.7498 28.3162 38.0325Z" fill="#B03E67"/>
<path d="M23.25 33.75H30.75V34.5C30.75 34.6989 30.671 34.8897 30.5303 35.0303C30.3897 35.171 30.1989 35.25 30 35.25H24C23.8011 35.25 23.6103 35.171 23.4697 35.0303C23.329 34.8897 23.25 34.6989 23.25 34.5V33.75Z" fill="white"/>
<path d="M25.5 28.125C25.5 27.5037 24.9963 27 24.375 27C23.7537 27 23.25 27.5037 23.25 28.125V28.875C23.25 29.4963 23.7537 30 24.375 30C24.9963 30 25.5 29.4963 25.5 28.875V28.125Z" fill="#1B0B47"/>
<path d="M33 28.125C33 27.5037 32.4963 27 31.875 27C31.2537 27 30.75 27.5037 30.75 28.125V28.875C30.75 29.4963 31.2537 30 31.875 30C32.4963 30 33 29.4963 33 28.875V28.125Z" fill="#1B0B47"/>
<path d="M21.375 29.25H19.875C19.2537 29.25 18.75 29.7537 18.75 30.375C18.75 30.9963 19.2537 31.5 19.875 31.5H21.375C21.9963 31.5 22.5 30.9963 22.5 30.375C22.5 29.7537 21.9963 29.25 21.375 29.25Z" fill="#FF859B"/>
<path d="M34.875 29.25H34.125C33.5037 29.25 33 29.7537 33 30.375C33 30.9963 33.5037 31.5 34.125 31.5H34.875C35.4963 31.5 36 30.9963 36 30.375C36 29.7537 35.4963 29.25 34.875 29.25Z" fill="#FF859B"/>
</g>
<defs>
<clipPath id="clip0_664_3674">
<rect width="48" height="48" rx="24" fill="white"/>
</clipPath>
</defs>
</svg>
