<svg width="16" height="16" viewBox="0 0 16 16" fill="none" xmlns="http://www.w3.org/2000/svg">
<path d="M3.33337 8.00001C3.33337 7.8232 3.26314 7.65363 3.13811 7.52861C3.01309 7.40358 2.84352 7.33334 2.66671 7.33334H2.00004C1.82323 7.33334 1.65366 7.40358 1.52864 7.52861C1.40361 7.65363 1.33337 7.8232 1.33337 8.00001C1.33337 8.17682 1.40361 8.34639 1.52864 8.47141C1.65366 8.59644 1.82323 8.66668 2.00004 8.66668H2.66671C2.84352 8.66668 3.01309 8.59644 3.13811 8.47141C3.26314 8.34639 3.33337 8.17682 3.33337 8.00001ZM3.76004 11.3333L3.28671 11.8067C3.16254 11.9316 3.09285 12.1006 3.09285 12.2767C3.09285 12.4528 3.16254 12.6218 3.28671 12.7467C3.41162 12.8708 3.58058 12.9405 3.75671 12.9405C3.93283 12.9405 4.1018 12.8708 4.22671 12.7467L4.70004 12.2733C4.80926 12.1458 4.86633 11.9818 4.85985 11.814C4.85337 11.6462 4.78381 11.487 4.66508 11.3683C4.54635 11.2496 4.38719 11.18 4.21941 11.1735C4.05163 11.1671 3.88757 11.2241 3.76004 11.3333ZM8.00004 3.33334C8.17685 3.33334 8.34642 3.26311 8.47145 3.13808C8.59647 3.01306 8.66671 2.84349 8.66671 2.66668V2.00001C8.66671 1.8232 8.59647 1.65363 8.47145 1.52861C8.34642 1.40358 8.17685 1.33334 8.00004 1.33334C7.82323 1.33334 7.65366 1.40358 7.52864 1.52861C7.40361 1.65363 7.33337 1.8232 7.33337 2.00001V2.66668C7.33337 2.84349 7.40361 3.01306 7.52864 3.13808C7.65366 3.26311 7.82323 3.33334 8.00004 3.33334ZM11.7734 4.89334C11.9483 4.89261 12.1159 4.82317 12.24 4.70001L12.7134 4.22668C12.7832 4.16691 12.8398 4.09337 12.8799 4.01066C12.9199 3.92795 12.9424 3.83786 12.9459 3.74605C12.9495 3.65423 12.934 3.56268 12.9005 3.47713C12.867 3.39158 12.8161 3.31388 12.7511 3.24891C12.6862 3.18394 12.6085 3.1331 12.5229 3.09959C12.4374 3.06607 12.3458 3.0506 12.254 3.05414C12.1622 3.05769 12.0721 3.08018 11.9894 3.12019C11.9067 3.16021 11.8331 3.21689 11.7734 3.28668L11.3334 3.76001C11.2092 3.88492 11.1395 4.05389 11.1395 4.23001C11.1395 4.40613 11.2092 4.5751 11.3334 4.70001C11.4509 4.81692 11.6078 4.88585 11.7734 4.89334ZM3.77337 4.70001C3.89755 4.82317 4.06515 4.89261 4.24004 4.89334C4.32778 4.89385 4.41475 4.87703 4.49598 4.84386C4.5772 4.81068 4.65108 4.7618 4.71337 4.70001C4.83754 4.5751 4.90724 4.40613 4.90724 4.23001C4.90724 4.05389 4.83754 3.88492 4.71337 3.76001L4.24004 3.28668C4.17832 3.22408 4.10487 3.17425 4.0239 3.14004C3.94292 3.10583 3.85599 3.0879 3.76809 3.08728C3.68018 3.08666 3.59301 3.10336 3.51156 3.13643C3.43011 3.1695 3.35597 3.21829 3.29337 3.28001C3.23078 3.34173 3.18095 3.41518 3.14674 3.49616C3.11253 3.57713 3.0946 3.66406 3.09398 3.75196C3.09273 3.9295 3.16206 4.10026 3.28671 4.22668L3.77337 4.70001ZM14 7.33334H13.3334C13.1566 7.33334 12.987 7.40358 12.862 7.52861C12.7369 7.65363 12.6667 7.8232 12.6667 8.00001C12.6667 8.17682 12.7369 8.34639 12.862 8.47141C12.987 8.59644 13.1566 8.66668 13.3334 8.66668H14C14.1769 8.66668 14.3464 8.59644 14.4714 8.47141C14.5965 8.34639 14.6667 8.17682 14.6667 8.00001C14.6667 7.8232 14.5965 7.65363 14.4714 7.52861C14.3464 7.40358 14.1769 7.33334 14 7.33334ZM12.24 11.3333C12.1134 11.2629 11.9672 11.2356 11.8237 11.2557C11.6801 11.2758 11.5471 11.3421 11.4446 11.4445C11.3421 11.547 11.2758 11.6801 11.2557 11.8237C11.2357 11.9672 11.2629 12.1134 11.3334 12.24L11.8067 12.7133C11.9316 12.8375 12.1006 12.9072 12.2767 12.9072C12.4528 12.9072 12.6218 12.8375 12.7467 12.7133C12.8709 12.5884 12.9406 12.4195 12.9406 12.2433C12.9406 12.0672 12.8709 11.8983 12.7467 11.7733L12.24 11.3333ZM8.00004 4.33334C7.27484 4.33334 6.56593 4.54839 5.96295 4.95129C5.35997 5.35419 4.89 5.92684 4.61248 6.59684C4.33496 7.26683 4.26235 8.00408 4.40383 8.71534C4.54531 9.42661 4.89452 10.0799 5.40732 10.5927C5.92011 11.1055 6.57345 11.4547 7.28471 11.5962C7.99597 11.7377 8.73322 11.6651 9.40321 11.3876C10.0732 11.11 10.6459 10.6401 11.0488 10.0371C11.4517 9.43412 11.6667 8.72521 11.6667 8.00001C11.6649 7.02809 11.2781 6.09648 10.5908 5.40923C9.90357 4.72198 8.97196 4.33511 8.00004 4.33334ZM8.00004 10.3333C7.53855 10.3333 7.08742 10.1965 6.70371 9.94011C6.32 9.68372 6.02093 9.3193 5.84432 8.89294C5.66772 8.46658 5.62151 7.99742 5.71154 7.5448C5.80157 7.09218 6.0238 6.67642 6.35013 6.35009C6.67645 6.02377 7.09221 5.80154 7.54483 5.71151C7.99745 5.62148 8.46661 5.66769 8.89297 5.84429C9.31933 6.0209 9.68375 6.31996 9.94014 6.70368C10.1965 7.08739 10.3334 7.53852 10.3334 8.00001C10.3334 8.61885 10.0875 9.21234 9.64996 9.64993C9.21237 10.0875 8.61888 10.3333 8.00004 10.3333ZM8.00004 12.6667C7.82323 12.6667 7.65366 12.7369 7.52864 12.8619C7.40361 12.987 7.33337 13.1565 7.33337 13.3333V14C7.33337 14.1768 7.40361 14.3464 7.52864 14.4714C7.65366 14.5964 7.82323 14.6667 8.00004 14.6667C8.17685 14.6667 8.34642 14.5964 8.47145 14.4714C8.59647 14.3464 8.66671 14.1768 8.66671 14V13.3333C8.66671 13.1565 8.59647 12.987 8.47145 12.8619C8.34642 12.7369 8.17685 12.6667 8.00004 12.6667Z"/>
</svg>
