<svg width="16" height="14" viewBox="0 0 16 14" fill="none" xmlns="http://www.w3.org/2000/svg">
<path fill-rule="evenodd" clip-rule="evenodd" d="M16 14H12.4638V9.07843C12.4638 7.79022 11.9106 6.9108 10.6943 6.9108C9.76388 6.9108 9.24647 7.50426 9.00564 8.0762C8.91533 8.28149 8.92944 8.56746 8.92944 8.85343V14H5.42616C5.42616 14 5.47131 5.28194 5.42616 4.48947H8.92944V5.98208C9.1364 5.32945 10.2559 4.39803 12.0423 4.39803C14.2587 4.39803 16 5.76603 16 8.71179V14ZM1.88335 3.29987H1.86077C0.731893 3.29987 0 2.57283 0 1.65127C0 0.711785 0.753527 0 1.90498 0C3.0555 0 3.76293 0.710001 3.78551 1.64859C3.78551 2.57015 3.0555 3.29987 1.88335 3.29987ZM0.403564 4.48947H3.52211V14H0.403564V4.48947Z" fill="white"/>
</svg>
