<svg width="16" height="20" viewBox="0 0 16 20" fill="none" xmlns="http://www.w3.org/2000/svg">
<path d="M9.99996 6.15384H12C12.4377 6.15384 12.8712 6.25332 13.2756 6.44661C13.68 6.6399 14.0475 6.9232 14.357 7.28035C14.6665 7.6375 14.912 8.0615 15.0796 8.52813C15.2471 8.99477 15.3333 9.49491 15.3333 9.99999C15.3333 10.5051 15.2471 11.0052 15.0796 11.4719C14.912 11.9385 14.6665 12.3625 14.357 12.7196C14.0475 13.0768 13.68 13.3601 13.2756 13.5534C12.8712 13.7467 12.4377 13.8461 12 13.8461H9.99996M5.99996 13.8461H3.99996C3.56222 13.8461 3.12877 13.7467 2.72435 13.5534C2.31993 13.3601 1.95247 13.0768 1.64294 12.7196C1.01782 11.9983 0.666626 11.0201 0.666626 9.99999C0.666626 8.97993 1.01782 8.00165 1.64294 7.28035C2.26806 6.55906 3.1159 6.15384 3.99996 6.15384H5.99996" stroke="#787B89" stroke-linecap="round" stroke-linejoin="round"/>
<path d="M5.33337 10H10.6667" stroke="#787B89" stroke-linecap="round" stroke-linejoin="round"/>
</svg>
