<svg width="20" height="20" viewBox="0 0 20 20" fill="none" xmlns="http://www.w3.org/2000/svg">
<path d="M10 18.5C14.6944 18.5 18.5 14.6944 18.5 10C18.5 5.30558 14.6944 1.5 10 1.5C5.30558 1.5 1.5 5.30558 1.5 10C1.5 14.6944 5.30558 18.5 10 18.5Z" fill="#0000FF"/>
<path d="M13.6125 12.2312H11.4875L9.3094 9.30937V12.2312H7.55627V6.01562H9.3094V8.77812L11.3813 6.01562H13.2406L11.1156 8.9375L13.6125 12.2312Z" fill="white"/>
<path d="M8.3531 14.8875C8.88122 14.8875 9.30935 14.4593 9.30935 13.9312C9.30935 13.4031 8.88122 12.975 8.3531 12.975C7.82498 12.975 7.39685 13.4031 7.39685 13.9312C7.39685 14.4593 7.82498 14.8875 8.3531 14.8875Z" fill="white"/>
</svg>
