<svg width="10" height="10" viewBox="0 0 10 10" fill="none"
  xmlns="http://www.w3.org/2000/svg">
  <g clip-path="url(#clip0_664_4162)">
    <path d="M0.416626 1.66663V4.16663H2.91663" stroke="rgb(120, 123, 137)" stroke-linecap="round" stroke-linejoin="round"/>
    <path d="M9.58337 8.33337V5.83337H7.08337" stroke="rgb(120, 123, 137)" stroke-linecap="round" stroke-linejoin="round"/>
    <path d="M8.53746 3.74999C8.32614 3.15282 7.96699 2.61891 7.49351 2.19808C7.02004 1.77725 6.44768 1.48323 5.82984 1.34343C5.212 1.20364 4.56881 1.22263 3.9603 1.39865C3.35178 1.57466 2.79777 1.90195 2.34996 2.34999L0.416626 4.16666M9.58329 5.83332L7.64996 7.64999C7.20215 8.09803 6.64814 8.42532 6.03962 8.60133C5.43111 8.77735 4.78792 8.79634 4.17008 8.65655C3.55224 8.51675 2.97988 8.22273 2.5064 7.8019C2.03293 7.38107 1.67378 6.84716 1.46246 6.24999" stroke="rgb(120, 123, 137)" stroke-linecap="round" stroke-linejoin="round"/>
  </g>
  <defs>
    <clipPath id="clip0_664_4162">
      <rect width="10" height="10" fill="rgb(120, 123, 137)"/>
    </clipPath>
  </defs>
</svg>
