<svg width="10" height="10" viewBox="0 0 10 10" fill="none" xmlns="http://www.w3.org/2000/svg">
<path d="M1.25 2.5H2.08333H8.75" stroke="white" stroke-linecap="round" stroke-linejoin="round"/>
<path d="M3.33337 2.50004V1.66671C3.33337 1.44569 3.42117 1.23373 3.57745 1.07745C3.73373 0.921171 3.94569 0.833374 4.16671 0.833374H5.83337C6.05439 0.833374 6.26635 0.921171 6.42263 1.07745C6.57891 1.23373 6.66671 1.44569 6.66671 1.66671V2.50004M7.91671 2.50004V8.33337C7.91671 8.55439 7.82891 8.76635 7.67263 8.92263C7.51635 9.07891 7.30439 9.16671 7.08337 9.16671H2.91671C2.69569 9.16671 2.48373 9.07891 2.32745 8.92263C2.17117 8.76635 2.08337 8.55439 2.08337 8.33337V2.50004H7.91671Z" stroke="white" stroke-linecap="round" stroke-linejoin="round"/>
<path d="M4.16663 4.58337V7.08337" stroke="white" stroke-linecap="round" stroke-linejoin="round"/>
<path d="M5.83337 4.58337V7.08337" stroke="white" stroke-linecap="round" stroke-linejoin="round"/>
</svg>
