<svg width="48" height="48" viewBox="0 0 48 48" fill="none" xmlns="http://www.w3.org/2000/svg">
<g clip-path="url(#clip0_664_3739)">
<path d="M48 24C48 10.7452 37.2548 0 24 0C10.7452 0 0 10.7452 0 24C0 37.2548 10.7452 48 24 48C37.2548 48 48 37.2548 48 24Z" fill="#68DBF2"/>
<path d="M13.5 31.5C15.5711 31.5 17.25 29.8211 17.25 27.75C17.25 25.6789 15.5711 24 13.5 24C11.4289 24 9.75 25.6789 9.75 27.75C9.75 29.8211 11.4289 31.5 13.5 31.5Z" fill="#EAC0B3"/>
<path d="M13.5 30.75H26.25V49.4025C26.25 49.4025 23.5177 51 19.875 51C16.2323 51 13.5 48.3923 13.5 48.3923V30.75Z" fill="#EAC0B3"/>
<path d="M26.1082 39.834C26.1082 43.8727 25.4557 43.4902 21.2085 43.4902C16.9612 43.4902 15.0015 40.2165 15.0015 36.1777C15.0015 32.1397 14.8402 28.5 18.2677 28.5C27.96 28.857 26.1082 35.7952 26.1082 39.834Z" fill="#C99688"/>
<path d="M34.4145 27.075C34.4145 33.7665 33.375 41.9948 25.125 41.9948C16.875 41.9948 13.071 33.7665 13.071 27.075C11.25 19.125 11.625 9.75 24 9.75C36.375 9.75 34.4145 20.3827 34.4145 27.075Z" fill="#F5D0C5"/>
<path d="M28.5 30.75H27.75C27.3358 30.75 27 31.0858 27 31.5C27 31.9142 27.3358 32.25 27.75 32.25H28.5C28.9142 32.25 29.25 31.9142 29.25 31.5C29.25 31.0858 28.9142 30.75 28.5 30.75Z" fill="#EAC0B3"/>
<path d="M28.5 45H12C8.27208 45 5.25 48.0221 5.25 51.75V55.5C5.25 59.2279 8.27208 62.25 12 62.25H28.5C32.2279 62.25 35.25 59.2279 35.25 55.5V51.75C35.25 48.0221 32.2279 45 28.5 45Z" fill="#E05A33"/>
<path fill-rule="evenodd" clip-rule="evenodd" d="M21.7238 19.6507C25.9313 21.048 31.7655 22.9845 37.875 16.875C40.875 13.875 27.375 1.125 16.5 8.25C8.00027 9.50925 8.48552 14.6025 8.86052 18.5325C8.93252 19.2847 9.00002 19.9935 9.00002 20.625C9.00002 21.0247 9.05252 21.324 9.15002 21.5385C9.04904 22.3551 8.99894 23.1772 9.00002 24C9.00002 24.7956 9.31609 25.5587 9.8787 26.1213C10.4413 26.6839 11.2044 27 12 27C12.7957 27 13.5587 26.6839 14.1213 26.1213C14.6839 25.5587 15 24.7956 15 24C15.458 24.0001 15.91 23.8952 16.3212 23.6936C16.7325 23.4919 17.0921 23.1988 17.3725 22.8367C17.6529 22.4745 17.8467 22.053 17.9389 21.6043C18.0312 21.1557 18.0195 20.6919 17.9048 20.2485L18 20.25C18.918 20.25 19.7393 19.8375 20.2898 19.1887C20.7428 19.3252 21.222 19.4843 21.7238 19.6507Z" fill="#1B0B47"/>
<path d="M22.7017 30.4035C24.47 30.4035 25.9035 28.97 25.9035 27.2018C25.9035 25.4335 24.47 24 22.7017 24C20.9335 24 19.5 25.4335 19.5 27.2018C19.5 28.97 20.9335 30.4035 22.7017 30.4035Z" stroke="black" stroke-width="2"/>
<path d="M33.2018 30.4035C34.97 30.4035 36.4035 28.97 36.4035 27.2018C36.4035 25.4335 34.97 24 33.2018 24C31.4335 24 30 25.4335 30 27.2018C30 28.97 31.4335 30.4035 33.2018 30.4035Z" stroke="black" stroke-width="2"/>
<path d="M25.4887 26.328L30.7387 26.25" stroke="black" stroke-width="2"/>
<path d="M21 34.5C21 33.9033 21.2371 33.331 21.659 32.909C22.081 32.4871 22.6533 32.25 23.25 32.25H30C30.5967 32.25 31.169 32.4871 31.591 32.909C32.0129 33.331 32.25 33.9033 32.25 34.5H21Z" fill="#1B0B47"/>
</g>
<defs>
<clipPath id="clip0_664_3739">
<rect width="48" height="48" rx="24" fill="white"/>
</clipPath>
</defs>
</svg>
