<svg width="16" height="16" viewBox="0 0 16 16" fill="none" xmlns="http://www.w3.org/2000/svg">
<path d="M12.6667 4.33334H10.6667V3.66667C10.6667 3.13624 10.456 2.62753 10.0809 2.25246C9.70585 1.87739 9.19714 1.66667 8.66671 1.66667H7.33337C6.80294 1.66667 6.29423 1.87739 5.91916 2.25246C5.54409 2.62753 5.33337 3.13624 5.33337 3.66667V4.33334H3.33337C2.80294 4.33334 2.29423 4.54405 1.91916 4.91912C1.54409 5.2942 1.33337 5.80291 1.33337 6.33334V12.3333C1.33337 12.8638 1.54409 13.3725 1.91916 13.7476C2.29423 14.1226 2.80294 14.3333 3.33337 14.3333H12.6667C13.1971 14.3333 13.7058 14.1226 14.0809 13.7476C14.456 13.3725 14.6667 12.8638 14.6667 12.3333V6.33334C14.6667 5.80291 14.456 5.2942 14.0809 4.91912C13.7058 4.54405 13.1971 4.33334 12.6667 4.33334ZM6.66671 3.66667C6.66671 3.48986 6.73695 3.32029 6.86197 3.19527C6.98699 3.07024 7.15656 3.00001 7.33337 3.00001H8.66671C8.84352 3.00001 9.01309 3.07024 9.13811 3.19527C9.26314 3.32029 9.33337 3.48986 9.33337 3.66667V4.33334H6.66671V3.66667ZM13.3334 12.3333C13.3334 12.5101 13.2631 12.6797 13.1381 12.8047C13.0131 12.9298 12.8435 13 12.6667 13H3.33337C3.15656 13 2.98699 12.9298 2.86197 12.8047C2.73695 12.6797 2.66671 12.5101 2.66671 12.3333V8.96667H4.66671V9.66667C4.66671 9.84348 4.73695 10.0131 4.86197 10.1381C4.98699 10.2631 5.15656 10.3333 5.33337 10.3333C5.51019 10.3333 5.67975 10.2631 5.80478 10.1381C5.9298 10.0131 6.00004 9.84348 6.00004 9.66667V8.96667H10V9.66667C10 9.84348 10.0703 10.0131 10.1953 10.1381C10.3203 10.2631 10.4899 10.3333 10.6667 10.3333C10.8435 10.3333 11.0131 10.2631 11.1381 10.1381C11.2631 10.0131 11.3334 9.84348 11.3334 9.66667V8.96667H13.3334V12.3333ZM13.3334 7.66667H2.66671V6.33334C2.66671 6.15653 2.73695 5.98696 2.86197 5.86193C2.98699 5.73691 3.15656 5.66667 3.33337 5.66667H12.6667C12.8435 5.66667 13.0131 5.73691 13.1381 5.86193C13.2631 5.98696 13.3334 6.15653 13.3334 6.33334V7.66667Z" fill="#787B89"/>
</svg>
