<svg width="10" height="10" viewBox="0 0 10 10" fill="none" xmlns="http://www.w3.org/2000/svg">
<g clip-path="url(#clip0_664_4159)">
<path d="M9.58329 7.91667C9.58329 8.13768 9.49549 8.34964 9.33921 8.50592C9.18293 8.6622 8.97097 8.75 8.74996 8.75H1.24996C1.02895 8.75 0.816984 8.6622 0.660704 8.50592C0.504423 8.34964 0.416626 8.13768 0.416626 7.91667V3.33333C0.416626 3.11232 0.504423 2.90036 0.660704 2.74408C0.816984 2.5878 1.02895 2.5 1.24996 2.5H2.91663L3.74996 1.25H6.24996L7.08329 2.5H8.74996C8.97097 2.5 9.18293 2.5878 9.33921 2.74408C9.49549 2.90036 9.58329 3.11232 9.58329 3.33333V7.91667Z" stroke="white" stroke-linecap="round" stroke-linejoin="round"/>
<path d="M5.00004 7.08333C5.92052 7.08333 6.66671 6.33714 6.66671 5.41667C6.66671 4.49619 5.92052 3.75 5.00004 3.75C4.07957 3.75 3.33337 4.49619 3.33337 5.41667C3.33337 6.33714 4.07957 7.08333 5.00004 7.08333Z" stroke="white" stroke-linecap="round" stroke-linejoin="round"/>
</g>
<defs>
<clipPath id="clip0_664_4159">
<rect width="10" height="10" fill="white"/>
</clipPath>
</defs>
</svg>
