<svg id="svg" version="1.1" xmlns="http://www.w3.org/2000/svg" xmlns:xlink="http://www.w3.org/1999/xlink" width="400" height="400" viewBox="0, 0, 400,400"><g id="svgg"><path id="path0" d="M195.247 73.249 C 195.183 73.305,193.831 73.431,192.242 73.528 C 139.462 76.746,92.580 116.707,79.627 169.517 C 63.166 236.634,104.759 305.265,171.802 321.612 C 176.302 322.709,183.734 324.038,187.105 324.349 C 188.191 324.449,189.300 324.573,189.569 324.624 C 193.044 325.288,209.316 325.274,214.946 324.602 C 257.196 319.560,290.996 297.719,311.434 262.254 C 317.286 252.098,323.818 235.595,325.371 227.039 L 325.550 226.053 319.091 226.020 C 309.515 225.971,281.242 225.980,273.618 226.034 L 266.974 226.081 264.945 230.252 C 254.719 251.269,233.574 266.274,210.263 269.055 C 207.440 269.392,196.266 269.427,194.474 269.105 C 194.112 269.040,193.105 268.912,192.237 268.821 C 178.247 267.352,162.728 259.298,151.579 247.721 C 137.216 232.808,130.652 213.658,132.444 191.903 C 134.245 170.053,148.680 148.612,169.075 137.495 C 203.496 118.732,249.251 133.497,264.463 168.277 C 265.864 171.480,266.001 171.689,266.727 171.740 C 272.943 172.182,325.065 172.391,325.480 171.976 C 325.862 171.594,322.436 160.375,320.135 154.474 C 302.712 109.784,261.157 77.869,215.090 73.798 C 214.100 73.710,212.993 73.578,212.632 73.505 C 211.842 73.344,195.411 73.103,195.247 73.249 " stroke="none" fill="#fcfcfc" fill-rule="evenodd"></path><path id="path1" d="M191.032 17.728 C 190.971 17.782,189.308 17.906,187.337 18.003 C 185.366 18.100,183.472 18.224,183.127 18.279 C 182.782 18.333,181.612 18.450,180.526 18.540 C 137.528 22.079,94.080 44.388,63.974 78.385 C 38.835 106.775,22.020 145.472,19.077 181.711 C 18.983 182.868,18.860 184.107,18.803 184.463 C 18.135 188.630,18.141 211.554,18.811 215.853 C 18.862 216.180,18.977 217.336,19.066 218.421 C 19.156 219.507,19.281 220.750,19.344 221.184 C 19.408 221.618,19.526 222.566,19.608 223.289 C 28.594 303.085,91.909 368.807,170.921 380.355 C 175.352 381.003,176.421 381.136,179.737 381.452 C 180.678 381.542,181.803 381.662,182.237 381.719 C 187.338 382.389,209.446 382.389,213.728 381.719 C 214.066 381.666,215.349 381.547,216.579 381.453 C 217.809 381.360,219.053 381.237,219.342 381.179 C 219.632 381.121,220.579 381.003,221.447 380.916 C 225.431 380.516,233.805 379.093,239.458 377.856 C 314.152 361.507,370.671 299.726,380.259 223.947 C 380.415 222.717,380.589 221.355,380.646 220.921 C 380.702 220.487,380.832 219.184,380.933 218.026 C 381.035 216.868,381.154 215.720,381.199 215.475 C 381.858 211.852,381.855 188.908,381.195 184.706 C 381.141 184.361,381.020 183.191,380.926 182.105 C 380.290 174.772,378.382 163.905,376.285 155.683 C 357.431 81.754,293.335 25.764,219.605 18.817 C 218.592 18.722,217.503 18.603,217.185 18.552 C 216.866 18.502,215.386 18.383,213.895 18.287 C 212.404 18.192,210.888 18.057,210.526 17.987 C 209.734 17.834,191.190 17.587,191.032 17.728 M212.632 73.505 C 212.993 73.578,214.100 73.710,215.090 73.798 C 261.157 77.869,302.712 109.784,320.135 154.474 C 322.436 160.375,325.862 171.594,325.480 171.976 C 325.065 172.391,272.943 172.182,266.727 171.740 C 266.001 171.689,265.864 171.480,264.463 168.277 C 251.261 138.093,213.769 121.920,181.340 132.420 C 145.414 144.052,125.306 180.005,134.197 216.711 C 140.630 243.269,166.024 266.068,192.237 268.821 C 193.105 268.912,194.112 269.040,194.474 269.105 C 196.266 269.427,207.440 269.392,210.263 269.055 C 233.574 266.274,254.719 251.269,264.945 230.252 L 266.974 226.081 273.618 226.034 C 281.242 225.980,309.515 225.971,319.091 226.020 L 325.550 226.053 325.371 227.039 C 323.818 235.595,317.286 252.098,311.434 262.254 C 290.996 297.719,257.196 319.560,214.946 324.602 C 209.316 325.274,193.044 325.288,189.569 324.624 C 189.300 324.573,188.191 324.449,187.105 324.349 C 173.358 323.082,156.141 317.672,142.588 310.360 C 105.810 290.521,81.881 255.247,76.852 213.463 C 68.447 143.622,122.752 77.765,192.242 73.528 C 193.831 73.431,195.183 73.305,195.247 73.249 C 195.411 73.103,211.842 73.344,212.632 73.505 " stroke="none" fill="#0454fc" fill-rule="evenodd"></path><path id="path2" d="" stroke="none" fill="#c0100fc" fill-rule="evenodd"></path><path id="path3" d="" stroke="none" fill="#40acfc" fill-rule="evenodd"></path><path id="path4" d="" stroke="none" fill="#4454fc" fill-rule="evenodd"></path></g></svg>