<svg width="14" height="16" viewBox="0 0 14 16" fill="none" xmlns="http://www.w3.org/2000/svg">
<path d="M11.6667 6H6.41667C5.77233 6 5.25 6.59695 5.25 7.33333V13.3333C5.25 14.0697 5.77233 14.6667 6.41667 14.6667H11.6667C12.311 14.6667 12.8333 14.0697 12.8333 13.3333V7.33333C12.8333 6.59695 12.311 6 11.6667 6Z" stroke="white" stroke-width="1.3" stroke-linecap="round" stroke-linejoin="round"/>
<path d="M2.91669 9.99998H2.33335C2.02393 9.99998 1.72719 9.8595 1.5084 9.60946C1.2896 9.35941 1.16669 9.02027 1.16669 8.66665V2.66665C1.16669 2.31302 1.2896 1.97389 1.5084 1.72384C1.72719 1.47379 2.02393 1.33331 2.33335 1.33331H7.58335C7.89277 1.33331 8.18952 1.47379 8.40831 1.72384C8.6271 1.97389 8.75002 2.31302 8.75002 2.66665V3.33331" stroke="white" stroke-width="1.3" stroke-linecap="round" stroke-linejoin="round"/>
</svg>
