<svg width="16" height="16" viewBox="0 0 16 16" fill="none" xmlns="http://www.w3.org/2000/svg">
<path d="M14.4266 8.66666C14.3304 8.58711 14.2138 8.53619 14.09 8.51969C13.9663 8.50319 13.8403 8.52177 13.7266 8.57332C13.0217 8.89591 12.2552 9.06194 11.48 9.05999C10.0459 9.05826 8.67062 8.48962 7.65406 7.47806C6.63751 6.4665 6.0621 5.09406 6.0533 3.65999C6.05634 3.21054 6.11228 2.76302 6.21997 2.32666C6.24282 2.21035 6.23425 2.09005 6.19514 1.97816C6.15603 1.86627 6.08779 1.76682 5.99746 1.69008C5.90713 1.61333 5.79797 1.56205 5.68123 1.54153C5.56449 1.52101 5.44439 1.53198 5.3333 1.57332C4.28818 2.04326 3.37968 2.77116 2.69314 3.68864C2.0066 4.60613 1.56455 5.68307 1.40853 6.81831C1.25251 7.95355 1.38764 9.10982 1.80121 10.1785C2.21479 11.2472 2.89324 12.1932 3.77283 12.9276C4.65243 13.6621 5.70429 14.1609 6.8296 14.3772C7.95491 14.5935 9.11674 14.5202 10.2059 14.1641C11.2951 13.8081 12.2759 13.181 13.0562 12.3418C13.8365 11.5026 14.3907 10.4788 14.6666 9.36666C14.7002 9.23932 14.6954 9.10488 14.6527 8.9803C14.61 8.85572 14.5313 8.74658 14.4266 8.66666ZM8.0933 13.1267C6.97447 13.1188 5.88544 12.7652 4.9753 12.1145C4.06516 11.4637 3.37841 10.5476 3.00909 9.49141C2.63977 8.43526 2.60593 7.29078 2.91219 6.21466C3.21846 5.13854 3.84987 4.18339 4.71997 3.47999V3.65999C4.72173 5.45231 5.43451 7.17072 6.70188 8.43808C7.96924 9.70545 9.68765 10.4182 11.48 10.42C11.9506 10.4217 12.42 10.3725 12.88 10.2733C12.4199 11.1437 11.7309 11.8719 10.8874 12.3794C10.0439 12.887 9.07776 13.1545 8.0933 13.1533V13.1267Z" />
</svg>
