<svg width="24" height="24" viewBox="0 0 24 24" fill="none" xmlns="http://www.w3.org/2000/svg">
<path fill-rule="evenodd" clip-rule="evenodd" d="M16.5107 18.1445C17.1147 18.9003 17.8394 19.7555 17.8394 19.7555C22.2887 19.6163 24 16.7323 24 16.7323C24 10.3281 21.1009 5.13701 21.1009 5.13701C18.2018 2.98899 15.4436 3.04866 15.4436 3.04866L15.1618 3.36688C18.5843 4.40112 20.1748 5.8928 20.1748 5.8928C18.081 4.75912 16.0275 4.20222 14.1149 3.98344C12.6653 3.82433 11.2762 3.86411 10.0481 4.02322C9.94265 4.02322 9.85254 4.03838 9.75098 4.05546C9.73621 4.05795 9.72119 4.06047 9.70585 4.063C9.00121 4.12267 7.28993 4.38123 5.13574 5.31601C4.39084 5.65413 3.94792 5.8928 3.94792 5.8928C3.94792 5.8928 5.61893 4.32156 9.2428 3.28733L9.04147 3.04866C9.04147 3.04866 6.2833 2.98899 3.3842 5.13701C3.3842 5.13701 0.485107 10.3281 0.485107 16.7323C0.485107 16.7323 2.17625 19.6163 6.62556 19.7555C6.62556 19.7555 7.37046 18.8605 7.97444 18.1047C5.4176 17.3489 4.45123 15.7578 4.45123 15.7578C4.45123 15.7578 4.65256 15.897 5.01495 16.0959C5.03508 16.1158 5.05521 16.1357 5.09548 16.1556C5.12568 16.1755 5.15588 16.1904 5.18607 16.2053C5.21627 16.2202 5.24647 16.2351 5.27667 16.255C5.77999 16.5335 6.2833 16.7522 6.74635 16.9312C7.57179 17.2495 8.55829 17.5677 9.70585 17.7865C11.2158 18.0649 12.9875 18.1644 14.9202 17.8064C15.8664 17.6472 16.8328 17.3688 17.8394 16.9511C18.5441 16.6926 19.3292 16.3147 20.1547 15.7777C20.1547 15.7777 19.148 17.4086 16.5107 18.1445ZM7.0074 13.1011C7.0074 11.852 7.90622 10.8281 9.04474 10.8281C10.1833 10.8281 11.1021 11.852 11.0821 13.1011C11.0821 14.3503 10.1833 15.3741 9.04474 15.3741C7.9262 15.3741 7.0074 14.3503 7.0074 13.1011ZM14.2979 13.1011C14.2979 11.852 15.1967 10.8281 16.3352 10.8281C17.4738 10.8281 18.3726 11.852 18.3726 13.1011C18.3726 14.3503 17.4738 15.3741 16.3352 15.3741C15.2167 15.3741 14.2979 14.3503 14.2979 13.1011Z" fill="#787B89"/>
</svg>
