<svg width="17" height="20" viewBox="0 0 17 20" fill="none" xmlns="http://www.w3.org/2000/svg">
<path d="M6.0382 18.4975C6.0382 18.8257 5.81114 19.2103 5.19265 19.0953C6.23333 20.3019 11.9 20.3019 13.0243 19.0937C12.397 19.2157 12.1743 18.8282 12.1743 18.4975C12.1743 18.0881 12.1886 16.7498 12.1886 15.0869C12.1886 13.9275 11.7931 13.1712 11.3492 12.7855C14.1049 12.4778 17 11.4268 17 6.65349C17 5.29666 16.5198 4.18801 15.7263 3.31769C15.8548 3.00467 16.2786 1.74065 15.605 0.0288064C15.605 0.0288064 14.5673 -0.305206 12.2052 1.30271C11.2162 1.02735 10.1567 0.889254 9.10501 0.88452C8.0533 0.889254 6.99462 1.02735 6.00746 1.30271C3.64255 -0.305206 2.60334 0.0288064 2.60334 0.0288064C1.93137 1.74065 2.35497 3.00467 2.48346 3.31769C1.69181 4.18801 1.20837 5.29666 1.20837 6.65349C1.20837 11.4155 4.09791 12.4811 6.84666 12.7954C6.49274 13.1057 6.17202 13.654 6.06095 14.4572C5.35476 14.7747 3.56345 15.324 2.45969 13.4241C2.45969 13.4241 1.80534 12.2311 0.562632 12.1434C0.562632 12.1434 -0.644825 12.1276 0.477996 12.8989C0.477996 12.8989 1.28912 13.2809 1.85206 14.7173C1.85206 14.7173 2.57855 16.9354 6.0214 16.1837C6.02673 17.2221 6.0382 18.2011 6.0382 18.4975Z" fill="#787B89"/>
</svg>
