<svg width="18" height="18" viewBox="0 0 18 18" fill="none" xmlns="http://www.w3.org/2000/svg">
<path d="M9.00002 8.16663C8.77901 8.16663 8.56705 8.25442 8.41077 8.4107C8.25449 8.56698 8.16669 8.77895 8.16669 8.99996V12.3333C8.16669 12.5543 8.25449 12.7663 8.41077 12.9225C8.56705 13.0788 8.77901 13.1666 9.00002 13.1666C9.22104 13.1666 9.433 13.0788 9.58928 12.9225C9.74556 12.7663 9.83336 12.5543 9.83336 12.3333V8.99996C9.83336 8.77895 9.74556 8.56698 9.58928 8.4107C9.433 8.25442 9.22104 8.16663 9.00002 8.16663ZM9.31669 4.89996C9.11381 4.81661 8.88624 4.81661 8.68336 4.89996C8.58106 4.93962 8.48761 4.99909 8.40836 5.07496C8.33475 5.15596 8.27556 5.24897 8.23336 5.34996C8.18671 5.44886 8.16387 5.55731 8.16669 5.66663C8.16606 5.7763 8.18708 5.88502 8.22855 5.98655C8.27002 6.08808 8.33112 6.18043 8.40836 6.25829C8.48936 6.3319 8.58237 6.39109 8.68336 6.43329C8.80961 6.48516 8.94666 6.50522 9.08248 6.49172C9.2183 6.47822 9.34872 6.43156 9.46228 6.35585C9.57585 6.28014 9.66908 6.1777 9.73378 6.05752C9.79848 5.93734 9.83268 5.80311 9.83336 5.66663C9.83029 5.44599 9.74397 5.23465 9.59169 5.07496C9.51244 4.99909 9.41898 4.93962 9.31669 4.89996ZM9.00002 0.666626C7.35185 0.666626 5.74068 1.15537 4.37027 2.07105C2.99986 2.98672 1.93176 4.28821 1.30103 5.81093C0.670298 7.33365 0.50527 9.0092 0.826813 10.6257C1.14836 12.2422 1.94203 13.7271 3.10747 14.8925C4.27291 16.058 5.75776 16.8516 7.37427 17.1732C8.99078 17.4947 10.6663 17.3297 12.1891 16.699C13.7118 16.0682 15.0133 15.0001 15.9289 13.6297C16.8446 12.2593 17.3334 10.6481 17.3334 8.99996C17.3334 7.90561 17.1178 6.82198 16.699 5.81093C16.2802 4.79988 15.6664 3.88122 14.8926 3.1074C14.1188 2.33358 13.2001 1.71975 12.1891 1.30096C11.178 0.882174 10.0944 0.666626 9.00002 0.666626V0.666626ZM9.00002 15.6666C7.68148 15.6666 6.39255 15.2756 5.29622 14.5431C4.19989 13.8105 3.34541 12.7694 2.84083 11.5512C2.33624 10.333 2.20422 8.99256 2.46146 7.69936C2.71869 6.40615 3.35363 5.21826 4.28598 4.28591C5.21833 3.35356 6.40622 2.71863 7.69942 2.46139C8.99263 2.20416 10.3331 2.33618 11.5512 2.84076C12.7694 3.34535 13.8106 4.19983 14.5432 5.29616C15.2757 6.39249 15.6667 7.68142 15.6667 8.99996C15.6667 10.7681 14.9643 12.4638 13.7141 13.714C12.4638 14.9642 10.7681 15.6666 9.00002 15.6666V15.6666Z" fill="#787B89"/>
</svg>
