<svg width="16" height="16" viewBox="0 0 16 16" fill="none" xmlns="http://www.w3.org/2000/svg">
<path d="M12.6667 8.00004H8.00004V3.33337C8.00004 2.93337 7.73337 2.66671 7.33337 2.66671C4.00004 2.66671 1.33337 5.33337 1.33337 8.66671C1.33337 12 4.00004 14.6667 7.33337 14.6667C10.6667 14.6667 13.3334 12 13.3334 8.66671C13.3334 8.26671 13.0667 8.00004 12.6667 8.00004ZM8.00004 13.2667C5.46671 13.6667 3.06671 11.8667 2.73337 9.33337C2.33337 6.80004 4.13337 4.40004 6.66671 4.06671V8.66671C6.66671 9.06671 6.93337 9.33337 7.33337 9.33337H11.9334C11.6667 11.4 10.0667 13 8.00004 13.2667ZM10 1.33337C9.60004 1.33337 9.33337 1.60004 9.33337 2.00004V6.00004C9.33337 6.40004 9.60004 6.66671 10 6.66671H14C14.4 6.66671 14.6667 6.40004 14.6667 6.00004C14.6667 3.40004 12.6 1.33337 10 1.33337ZM10.6667 5.33337V2.73337C12 3.00004 13 4.00004 13.2667 5.33337H10.6667Z" fill="#787B89"/>
</svg>
