<svg width="16" height="16" viewBox="0 0 16 16" fill="none" xmlns="http://www.w3.org/2000/svg">
<path d="M5.33335 14H2.66669C2.48988 14 2.32031 13.9297 2.19528 13.8047C2.07026 13.6797 2.00002 13.5101 2.00002 13.3333V10.6666C2.00002 10.4898 1.92978 10.3202 1.80476 10.1952C1.67973 10.0702 1.51016 9.99996 1.33335 9.99996C1.15654 9.99996 0.986973 10.0702 0.861949 10.1952C0.736925 10.3202 0.666687 10.4898 0.666687 10.6666V13.3333C0.666687 13.8637 0.877401 14.3724 1.25247 14.7475C1.62755 15.1226 2.13625 15.3333 2.66669 15.3333H5.33335C5.51016 15.3333 5.67973 15.2631 5.80476 15.138C5.92978 15.013 6.00002 14.8434 6.00002 14.6666C6.00002 14.4898 5.92978 14.3202 5.80476 14.1952C5.67973 14.0702 5.51016 14 5.33335 14ZM14.6667 9.99996C14.4899 9.99996 14.3203 10.0702 14.1953 10.1952C14.0703 10.3202 14 10.4898 14 10.6666V13.3333C14 13.5101 13.9298 13.6797 13.8048 13.8047C13.6797 13.9297 13.5102 14 13.3334 14H10.6667C10.4899 14 10.3203 14.0702 10.1953 14.1952C10.0703 14.3202 10 14.4898 10 14.6666C10 14.8434 10.0703 15.013 10.1953 15.138C10.3203 15.2631 10.4899 15.3333 10.6667 15.3333H13.3334C13.8638 15.3333 14.3725 15.1226 14.7476 14.7475C15.1226 14.3724 15.3334 13.8637 15.3334 13.3333V10.6666C15.3334 10.4898 15.2631 10.3202 15.1381 10.1952C15.0131 10.0702 14.8435 9.99996 14.6667 9.99996ZM13.3334 0.666626H10.6667C10.4899 0.666626 10.3203 0.736864 10.1953 0.861888C10.0703 0.986912 10 1.15648 10 1.33329C10 1.5101 10.0703 1.67967 10.1953 1.8047C10.3203 1.92972 10.4899 1.99996 10.6667 1.99996H13.3334C13.5102 1.99996 13.6797 2.0702 13.8048 2.19522C13.9298 2.32025 14 2.48981 14 2.66663V5.33329C14 5.5101 14.0703 5.67967 14.1953 5.8047C14.3203 5.92972 14.4899 5.99996 14.6667 5.99996C14.8435 5.99996 15.0131 5.92972 15.1381 5.8047C15.2631 5.67967 15.3334 5.5101 15.3334 5.33329V2.66663C15.3334 2.13619 15.1226 1.62749 14.7476 1.25241C14.3725 0.87734 13.8638 0.666626 13.3334 0.666626ZM1.33335 5.99996C1.51016 5.99996 1.67973 5.92972 1.80476 5.8047C1.92978 5.67967 2.00002 5.5101 2.00002 5.33329V2.66663C2.00002 2.48981 2.07026 2.32025 2.19528 2.19522C2.32031 2.0702 2.48988 1.99996 2.66669 1.99996H5.33335C5.51016 1.99996 5.67973 1.92972 5.80476 1.8047C5.92978 1.67967 6.00002 1.5101 6.00002 1.33329C6.00002 1.15648 5.92978 0.986912 5.80476 0.861888C5.67973 0.736864 5.51016 0.666626 5.33335 0.666626H2.66669C2.13625 0.666626 1.62755 0.87734 1.25247 1.25241C0.877401 1.62749 0.666687 2.13619 0.666687 2.66663V5.33329C0.666687 5.5101 0.736925 5.67967 0.861949 5.8047C0.986973 5.92972 1.15654 5.99996 1.33335 5.99996ZM6.66669 3.33329H4.00002C3.82321 3.33329 3.65364 3.40353 3.52862 3.52855C3.40359 3.65358 3.33335 3.82315 3.33335 3.99996V6.66663C3.33335 6.84344 3.40359 7.01301 3.52862 7.13803C3.65364 7.26305 3.82321 7.33329 4.00002 7.33329H6.66669C6.8435 7.33329 7.01307 7.26305 7.13809 7.13803C7.26312 7.01301 7.33335 6.84344 7.33335 6.66663V3.99996C7.33335 3.82315 7.26312 3.65358 7.13809 3.52855C7.01307 3.40353 6.8435 3.33329 6.66669 3.33329ZM6.00002 5.99996H4.66669V4.66663H6.00002V5.99996ZM9.33335 7.33329H12C12.1768 7.33329 12.3464 7.26305 12.4714 7.13803C12.5964 7.01301 12.6667 6.84344 12.6667 6.66663V3.99996C12.6667 3.82315 12.5964 3.65358 12.4714 3.52855C12.3464 3.40353 12.1768 3.33329 12 3.33329H9.33335C9.15654 3.33329 8.98697 3.40353 8.86195 3.52855C8.73692 3.65358 8.66669 3.82315 8.66669 3.99996V6.66663C8.66669 6.84344 8.73692 7.01301 8.86195 7.13803C8.98697 7.26305 9.15654 7.33329 9.33335 7.33329ZM10 4.66663H11.3334V5.99996H10V4.66663ZM6.66669 8.66663H4.00002C3.82321 8.66663 3.65364 8.73686 3.52862 8.86189C3.40359 8.98691 3.33335 9.15648 3.33335 9.33329V12C3.33335 12.1768 3.40359 12.3463 3.52862 12.4714C3.65364 12.5964 3.82321 12.6666 4.00002 12.6666H6.66669C6.8435 12.6666 7.01307 12.5964 7.13809 12.4714C7.26312 12.3463 7.33335 12.1768 7.33335 12V9.33329C7.33335 9.15648 7.26312 8.98691 7.13809 8.86189C7.01307 8.73686 6.8435 8.66663 6.66669 8.66663ZM6.00002 11.3333H4.66669V9.99996H6.00002V11.3333ZM9.33335 10.6666C9.51016 10.6666 9.67973 10.5964 9.80476 10.4714C9.92978 10.3463 10 10.1768 10 9.99996C10.1768 9.99996 10.3464 9.92972 10.4714 9.8047C10.5964 9.67967 10.6667 9.5101 10.6667 9.33329C10.6667 9.15648 10.5964 8.98691 10.4714 8.86189C10.3464 8.73686 10.1768 8.66663 10 8.66663H9.33335C9.15654 8.66663 8.98697 8.73686 8.86195 8.86189C8.73692 8.98691 8.66669 9.15648 8.66669 9.33329V9.99996C8.66669 10.1768 8.73692 10.3463 8.86195 10.4714C8.98697 10.5964 9.15654 10.6666 9.33335 10.6666ZM12 8.66663C11.8232 8.66663 11.6536 8.73686 11.5286 8.86189C11.4036 8.98691 11.3334 9.15648 11.3334 9.33329V11.3333C11.1565 11.3333 10.987 11.4035 10.8619 11.5286C10.7369 11.6536 10.6667 11.8231 10.6667 12C10.6667 12.1768 10.7369 12.3463 10.8619 12.4714C10.987 12.5964 11.1565 12.6666 11.3334 12.6666H12C12.1768 12.6666 12.3464 12.5964 12.4714 12.4714C12.5964 12.3463 12.6667 12.1768 12.6667 12V9.33329C12.6667 9.15648 12.5964 8.98691 12.4714 8.86189C12.3464 8.73686 12.1768 8.66663 12 8.66663ZM9.33335 11.3333C9.2015 11.3333 9.07261 11.3724 8.96297 11.4456C8.85334 11.5189 8.76789 11.623 8.71743 11.7448C8.66698 11.8667 8.65377 12.0007 8.6795 12.13C8.70522 12.2593 8.76871 12.3781 8.86195 12.4714C8.95518 12.5646 9.07397 12.6281 9.20329 12.6538C9.33261 12.6795 9.46666 12.6663 9.58848 12.6159C9.71029 12.5654 9.81441 12.48 9.88767 12.3703C9.96092 12.2607 10 12.1318 10 12C10 11.8231 9.92978 11.6536 9.80476 11.5286C9.67973 11.4035 9.51016 11.3333 9.33335 11.3333Z" fill="#787B89"/>
</svg>
