<svg width="16" height="16" viewBox="0 0 16 16" fill="none" xmlns="http://www.w3.org/2000/svg">
<path d="M14.2134 6.36671L12.9534 5.94671L13.5467 4.76004C13.6069 4.63583 13.627 4.49602 13.6043 4.35989C13.5816 4.22376 13.5172 4.09803 13.42 4.00004L12 2.58004C11.9015 2.48143 11.7746 2.41618 11.6371 2.39346C11.4996 2.37074 11.3584 2.39169 11.2334 2.45338L10.0467 3.04671L9.62671 1.78671C9.58235 1.65537 9.49816 1.54113 9.38584 1.45987C9.27352 1.37862 9.13866 1.33441 9.00004 1.33338H7.00004C6.86028 1.33302 6.72394 1.37659 6.61029 1.45794C6.49664 1.53929 6.41143 1.6543 6.36671 1.78671L5.94671 3.04671L4.76004 2.45338C4.63583 2.39323 4.49602 2.37311 4.35989 2.3958C4.22376 2.41849 4.09803 2.48286 4.00004 2.58004L2.58004 4.00004C2.48143 4.09855 2.41618 4.22549 2.39346 4.36301C2.37074 4.50053 2.39169 4.64172 2.45338 4.76671L3.04671 5.95338L1.78671 6.37338C1.65537 6.41773 1.54113 6.50193 1.45987 6.61425C1.37862 6.72657 1.33441 6.86142 1.33338 7.00004V9.00004C1.33302 9.1398 1.37659 9.27615 1.45794 9.38979C1.53929 9.50344 1.6543 9.58865 1.78671 9.63338L3.04671 10.0534L2.45338 11.24C2.39323 11.3643 2.37311 11.5041 2.3958 11.6402C2.41849 11.7763 2.48286 11.9021 2.58004 12L4.00004 13.42C4.09855 13.5187 4.22549 13.5839 4.36301 13.6066C4.50053 13.6293 4.64172 13.6084 4.76671 13.5467L5.95338 12.9534L6.37338 14.2134C6.4181 14.3458 6.50331 14.4608 6.61696 14.5421C6.73061 14.6235 6.86695 14.6671 7.00671 14.6667H9.00671C9.14647 14.6671 9.28281 14.6235 9.39646 14.5421C9.51011 14.4608 9.59532 14.3458 9.64004 14.2134L10.06 12.9534L11.2467 13.5467C11.3701 13.6053 11.5086 13.6246 11.6433 13.602C11.7781 13.5793 11.9026 13.5158 12 13.42L13.42 12C13.5187 11.9015 13.5839 11.7746 13.6066 11.6371C13.6293 11.4996 13.6084 11.3584 13.5467 11.2334L12.9534 10.0467L14.2134 9.62671C14.3447 9.58235 14.459 9.49816 14.5402 9.38584C14.6215 9.27352 14.6657 9.13866 14.6667 9.00004V7.00004C14.6671 6.86028 14.6235 6.72394 14.5421 6.61029C14.4608 6.49664 14.3458 6.41143 14.2134 6.36671ZM13.3334 8.52004L12.5334 8.78671C12.3494 8.84638 12.1806 8.94536 12.0387 9.07678C11.8969 9.20819 11.7853 9.36891 11.7117 9.54776C11.6381 9.72662 11.6043 9.91934 11.6127 10.1126C11.621 10.3058 11.6713 10.4949 11.76 10.6667L12.14 11.4267L11.4067 12.16L10.6667 11.76C10.4957 11.6749 10.3085 11.6274 10.1176 11.6209C9.92669 11.6144 9.73662 11.649 9.56025 11.7223C9.38388 11.7956 9.22533 11.906 9.09532 12.0459C8.96531 12.1859 8.86689 12.3521 8.80671 12.5334L8.54004 13.3334H7.48004L7.21338 12.5334C7.1537 12.3494 7.05473 12.1806 6.92331 12.0387C6.79189 11.8969 6.63118 11.7853 6.45232 11.7117C6.27347 11.6381 6.08074 11.6043 5.88753 11.6127C5.69431 11.621 5.50522 11.6713 5.33338 11.76L4.57338 12.14L3.84004 11.4067L4.24004 10.6667C4.32877 10.4949 4.37906 10.3058 4.38741 10.1126C4.39576 9.91934 4.36197 9.72662 4.2884 9.54776C4.21483 9.36891 4.10323 9.20819 3.96134 9.07678C3.81945 8.94536 3.65067 8.84638 3.46671 8.78671L2.66671 8.52004V7.48004L3.46671 7.21338C3.65067 7.1537 3.81945 7.05473 3.96134 6.92331C4.10323 6.79189 4.21483 6.63118 4.2884 6.45232C4.36197 6.27347 4.39576 6.08074 4.38741 5.88753C4.37906 5.69431 4.32877 5.50522 4.24004 5.33338L3.86004 4.59338L4.59338 3.86004L5.33338 4.24004C5.50522 4.32877 5.69431 4.37906 5.88753 4.38741C6.08074 4.39576 6.27347 4.36197 6.45232 4.2884C6.63118 4.21483 6.79189 4.10323 6.92331 3.96134C7.05473 3.81945 7.1537 3.65067 7.21338 3.46671L7.48004 2.66671H8.52004L8.78671 3.46671C8.84638 3.65067 8.94536 3.81945 9.07678 3.96134C9.20819 4.10323 9.36891 4.21483 9.54776 4.2884C9.72662 4.36197 9.91934 4.39576 10.1126 4.38741C10.3058 4.37906 10.4949 4.32877 10.6667 4.24004L11.4267 3.86004L12.16 4.59338L11.76 5.33338C11.6749 5.50434 11.6274 5.69161 11.6209 5.8825C11.6144 6.0734 11.649 6.26346 11.7223 6.43983C11.7956 6.6162 11.906 6.77475 12.0459 6.90476C12.1859 7.03477 12.3521 7.1332 12.5334 7.19338L13.3334 7.46004V8.52004ZM8.00004 5.33338C7.47263 5.33338 6.95705 5.48977 6.51852 5.78279C6.07999 6.07581 5.7382 6.49228 5.53636 6.97955C5.33453 7.46682 5.28172 8.003 5.38461 8.52028C5.48751 9.03757 5.74148 9.51272 6.11442 9.88566C6.48736 10.2586 6.96252 10.5126 7.4798 10.6155C7.99708 10.7184 8.53326 10.6656 9.02053 10.4637C9.5078 10.2619 9.92428 9.92009 10.2173 9.48156C10.5103 9.04303 10.6667 8.52746 10.6667 8.00004C10.6667 7.2928 10.3858 6.61452 9.88566 6.11442C9.38556 5.61433 8.70729 5.33338 8.00004 5.33338ZM8.00004 9.33337C7.73633 9.33337 7.47855 9.25518 7.25928 9.10867C7.04002 8.96216 6.86912 8.75392 6.7682 8.51029C6.66729 8.26665 6.64088 7.99856 6.69233 7.73992C6.74378 7.48128 6.87076 7.2437 7.05723 7.05723C7.2437 6.87076 7.48128 6.74378 7.73992 6.69233C7.99856 6.64088 8.26665 6.66729 8.51029 6.7682C8.75392 6.86912 8.96216 7.04002 9.10867 7.25928C9.25518 7.47855 9.33337 7.73633 9.33337 8.00004C9.33337 8.35366 9.1929 8.6928 8.94285 8.94285C8.6928 9.1929 8.35366 9.33337 8.00004 9.33337Z" fill="#787B89"/>
</svg>
