<svg id="svg" version="1.1" xmlns="http://www.w3.org/2000/svg" xmlns:xlink="http://www.w3.org/1999/xlink" width="400" height="367.5213675213675" viewBox="0, 0, 400,367.5213675213675"><g id="svgg">
  <path id="path0" d="M0.000 183.824 L 0.000 367.647 35.478 367.647 C 54.991 367.647,70.956 367.558,70.956 367.448 C 70.956 367.156,69.362 364.933,68.934 364.627 C 68.691 364.454,68.504 328.466,68.382 258.561 L 68.199 152.757 38.588 152.574 L 8.978 152.390 7.853 151.471 C 7.234 150.965,6.373 149.940,5.938 149.192 L 5.147 147.832 5.147 89.444 L 5.147 31.055 6.020 29.406 C 7.829 25.989,1.779 26.312,67.831 26.103 L 125.919 25.919 126.103 14.833 L 126.287 3.748 127.491 2.425 C 128.153 1.698,128.856 1.103,129.053 1.103 C 129.250 1.103,129.412 0.855,129.412 0.551 C 129.412 0.063,121.977 0.000,64.706 0.000 L 0.000 0.000 0.000 183.824 M275.735 0.495 C 275.735 0.871,276.830 1.049,280.258 1.233 C 282.746 1.366,285.682 1.734,286.784 2.050 C 287.886 2.367,289.990 2.779,291.461 2.966 C 292.932 3.153,294.711 3.547,295.414 3.841 C 296.117 4.134,297.609 4.544,298.730 4.751 C 299.851 4.959,301.298 5.375,301.947 5.676 C 302.595 5.978,303.950 6.405,304.957 6.626 C 305.965 6.846,307.040 7.245,307.347 7.511 C 307.654 7.777,308.566 8.113,309.375 8.256 C 310.184 8.400,311.342 8.813,311.949 9.175 C 312.555 9.536,313.535 9.946,314.125 10.086 C 314.716 10.225,315.607 10.660,316.105 11.052 C 316.603 11.444,317.222 11.765,317.479 11.765 C 317.911 11.765,321.148 13.235,322.426 14.012 C 322.730 14.197,323.640 14.685,324.449 15.097 C 325.257 15.510,326.746 16.327,327.757 16.914 C 328.768 17.502,330.133 18.240,330.790 18.555 C 331.448 18.870,331.985 19.275,331.985 19.454 C 331.985 19.634,332.440 19.965,332.996 20.189 C 333.967 20.581,335.989 21.901,337.119 22.880 C 337.415 23.136,337.931 23.511,338.265 23.713 C 344.154 27.272,361.397 43.273,361.397 45.177 C 361.397 45.403,361.537 45.588,361.709 45.588 C 361.880 45.588,363.080 46.921,364.374 48.550 C 365.669 50.178,367.017 51.858,367.371 52.282 C 367.725 52.707,368.015 53.275,368.015 53.546 C 368.015 53.816,368.346 54.245,368.750 54.497 C 369.154 54.750,369.485 55.139,369.485 55.362 C 369.485 55.586,369.810 56.062,370.207 56.421 C 370.604 56.780,371.113 57.633,371.338 58.317 C 371.564 59.000,371.899 59.559,372.082 59.559 C 372.266 59.559,372.641 60.097,372.916 60.754 C 373.191 61.411,373.689 62.176,374.024 62.453 C 374.359 62.731,374.632 63.243,374.632 63.591 C 374.632 63.939,374.954 64.515,375.347 64.871 C 375.740 65.226,376.163 65.979,376.287 66.544 C 376.411 67.109,376.824 67.853,377.206 68.199 C 377.587 68.544,378.013 69.347,378.152 69.983 C 378.291 70.619,378.714 71.534,379.092 72.016 C 379.470 72.499,379.780 73.160,379.781 73.487 C 379.782 73.814,380.087 74.581,380.460 75.193 C 380.833 75.804,381.350 76.962,381.608 77.766 C 381.867 78.570,382.292 79.476,382.552 79.779 C 382.813 80.083,383.147 80.983,383.295 81.780 C 383.443 82.578,383.855 83.736,384.210 84.354 C 384.566 84.972,384.975 86.213,385.120 87.111 C 385.264 88.009,385.584 88.945,385.830 89.192 C 386.077 89.438,386.467 90.779,386.697 92.172 C 386.927 93.565,387.367 95.210,387.675 95.828 C 387.983 96.446,388.341 98.009,388.470 99.303 C 388.600 100.596,388.932 102.103,389.208 102.651 C 389.484 103.199,389.886 105.763,390.102 108.349 C 390.318 110.935,390.690 113.713,390.928 114.522 C 391.525 116.551,391.518 135.858,390.919 138.603 C 390.677 139.715,390.314 142.528,390.113 144.853 C 389.912 147.178,389.502 149.825,389.201 150.735 C 388.901 151.645,388.485 153.549,388.278 154.966 C 388.070 156.382,387.661 158.037,387.367 158.642 C 387.074 159.247,386.719 160.616,386.580 161.682 C 386.440 162.749,386.124 163.825,385.878 164.072 C 385.632 164.320,385.234 165.502,384.994 166.699 C 384.754 167.897,384.328 169.138,384.047 169.457 C 383.766 169.776,383.422 170.730,383.283 171.578 C 383.144 172.426,382.806 173.306,382.532 173.534 C 382.257 173.761,381.920 174.460,381.783 175.086 C 381.645 175.712,381.138 176.966,380.656 177.873 C 380.174 178.779,379.779 179.722,379.779 179.968 C 379.779 180.214,379.474 180.810,379.100 181.292 C 378.727 181.775,378.313 182.613,378.181 183.154 C 378.048 183.696,377.727 184.358,377.466 184.625 C 377.205 184.892,376.766 185.689,376.490 186.397 C 376.215 187.105,375.791 187.850,375.548 188.053 C 375.306 188.256,374.976 188.835,374.817 189.340 C 374.657 189.844,374.178 190.754,373.751 191.360 C 372.560 193.055,372.089 193.836,371.530 195.044 C 371.248 195.655,370.672 196.466,370.251 196.848 C 369.830 197.229,369.485 197.698,369.485 197.890 C 369.485 198.082,369.113 198.711,368.658 199.288 C 368.203 199.864,367.086 201.345,366.176 202.579 C 365.267 203.813,364.108 205.288,363.603 205.857 C 363.097 206.426,362.270 207.430,361.765 208.088 C 358.325 212.562,347.775 222.909,344.818 224.707 C 344.231 225.065,343.750 225.525,343.750 225.730 C 343.750 225.935,343.503 226.103,343.202 226.103 C 342.900 226.103,342.447 226.434,342.194 226.838 C 341.942 227.243,341.590 227.574,341.412 227.574 C 341.235 227.574,340.524 228.070,339.834 228.676 C 339.143 229.283,338.335 229.779,338.039 229.779 C 337.742 229.779,337.500 229.929,337.500 230.111 C 337.500 230.293,336.895 230.831,336.155 231.306 C 333.559 232.972,330.190 235.010,328.252 236.087 C 327.649 236.422,326.877 236.947,326.537 237.254 C 326.197 237.560,325.471 237.922,324.923 238.059 C 324.375 238.196,323.742 238.531,323.515 238.804 C 323.288 239.077,322.496 239.499,321.754 239.741 C 321.012 239.982,320.010 240.487,319.528 240.862 C 319.045 241.237,318.434 241.544,318.168 241.544 C 317.903 241.544,316.908 241.958,315.957 242.463 C 315.007 242.969,313.943 243.382,313.593 243.382 C 313.244 243.382,312.764 243.616,312.527 243.902 C 312.290 244.187,311.236 244.622,310.184 244.869 C 309.132 245.115,308.064 245.482,307.809 245.684 C 307.555 245.886,306.314 246.347,305.052 246.708 C 303.790 247.069,302.096 247.620,301.287 247.931 C 300.478 248.242,299.382 248.504,298.852 248.513 C 298.322 248.522,297.163 248.844,296.278 249.229 C 295.393 249.613,293.594 250.045,292.279 250.189 C 290.965 250.332,289.724 250.577,289.522 250.733 C 288.913 251.203,285.385 251.838,283.346 251.844 C 282.294 251.847,280.441 252.121,279.228 252.453 C 277.328 252.973,274.043 253.075,255.515 253.186 C 243.686 253.257,233.635 253.400,233.180 253.503 L 232.353 253.690 232.341 295.687 C 232.331 332.032,232.257 337.780,231.790 338.397 C 231.493 338.790,231.250 339.391,231.250 339.733 C 231.250 340.074,230.630 340.829,229.871 341.409 L 228.493 342.463 201.677 342.554 C 180.682 342.626,174.797 342.745,174.568 343.106 C 174.407 343.359,174.273 348.107,174.270 353.657 L 174.265 363.747 173.296 365.146 C 172.763 365.915,172.184 366.544,172.009 366.544 C 171.834 366.544,171.691 366.792,171.691 367.096 C 171.691 367.585,184.620 367.647,285.846 367.647 L 400.000 367.647 400.000 183.824 L 400.000 0.000 337.868 0.000 C 286.007 0.000,275.735 0.082,275.735 0.495 " stroke="none" fill="none" fill-rule="evenodd"></path><path id="path1" d="M128.091 3.121 L 126.958 4.437 126.714 21.580 C 126.274 52.552,126.423 338.194,126.879 339.047 C 128.696 342.441,127.897 342.347,153.493 342.186 C 165.423 342.111,187.013 341.978,201.471 341.889 L 227.757 341.728 229.089 340.709 C 230.962 339.276,230.874 341.516,230.878 295.142 C 230.882 253.398,230.883 253.334,231.635 252.932 C 232.145 252.659,238.329 252.502,250.844 252.445 C 265.568 252.377,270.305 252.234,274.265 251.739 C 276.994 251.397,280.469 251.111,281.985 251.102 C 283.901 251.091,285.222 250.869,286.313 250.374 C 287.176 249.982,289.161 249.553,290.724 249.421 C 292.287 249.289,293.961 248.932,294.445 248.629 C 294.928 248.326,296.388 247.946,297.689 247.784 C 299.009 247.621,300.353 247.221,300.730 246.880 C 301.101 246.544,302.327 246.144,303.454 245.991 C 304.581 245.838,305.795 245.459,306.152 245.148 C 306.509 244.837,307.527 244.473,308.413 244.338 C 309.300 244.203,310.439 243.768,310.945 243.370 C 311.450 242.972,312.316 242.647,312.868 242.647 C 313.420 242.647,314.294 242.315,314.810 241.909 C 315.327 241.502,316.250 241.070,316.863 240.947 C 317.476 240.825,318.259 240.413,318.604 240.031 C 318.949 239.650,319.587 239.338,320.022 239.338 C 320.457 239.338,321.374 238.925,322.059 238.419 C 322.744 237.914,323.578 237.500,323.912 237.500 C 324.245 237.500,324.804 237.184,325.154 236.798 C 325.503 236.412,326.221 235.987,326.749 235.855 C 327.276 235.722,328.187 235.211,328.772 234.719 C 329.357 234.226,329.981 233.824,330.159 233.824 C 330.543 233.824,332.919 232.283,334.130 231.248 C 334.603 230.845,335.158 230.515,335.364 230.515 C 335.707 230.515,337.236 229.410,338.603 228.174 C 338.906 227.900,339.568 227.461,340.074 227.198 C 340.579 226.936,341.209 226.417,341.473 226.045 C 341.737 225.672,342.132 225.368,342.350 225.368 C 342.568 225.368,343.134 224.995,343.607 224.540 C 344.080 224.085,344.762 223.465,345.122 223.162 C 350.759 218.414,355.033 214.273,358.818 209.893 C 359.970 208.560,361.229 207.132,361.614 206.720 C 362.000 206.307,362.647 205.526,363.051 204.984 C 363.456 204.441,364.118 203.638,364.522 203.198 C 364.926 202.759,365.450 202.033,365.686 201.585 C 365.922 201.137,366.291 200.556,366.508 200.293 C 368.124 198.332,368.750 197.458,368.750 197.167 C 368.750 196.982,369.118 196.435,369.568 195.952 C 370.407 195.052,371.211 193.745,372.231 191.628 C 372.550 190.966,373.138 190.097,373.538 189.697 C 373.938 189.298,374.265 188.665,374.265 188.292 C 374.265 187.919,374.581 187.328,374.967 186.978 C 375.353 186.629,375.777 185.913,375.909 185.388 C 376.041 184.863,376.469 184.025,376.861 183.527 C 377.253 183.029,377.574 182.345,377.574 182.007 C 377.574 181.669,377.987 180.832,378.493 180.147 C 378.998 179.462,379.412 178.445,379.412 177.888 C 379.412 177.331,379.671 176.730,379.988 176.552 C 380.305 176.375,380.728 175.501,380.928 174.609 C 381.129 173.718,381.522 172.736,381.802 172.426 C 382.082 172.116,382.480 171.121,382.686 170.215 C 382.892 169.308,383.398 167.911,383.810 167.110 C 384.222 166.309,384.559 165.081,384.559 164.381 C 384.559 163.682,384.811 162.830,385.120 162.489 C 385.429 162.148,385.900 160.610,386.168 159.072 C 386.436 157.533,386.864 156.022,387.120 155.714 C 387.376 155.405,387.711 153.621,387.865 151.749 C 388.018 149.877,388.428 147.693,388.776 146.896 C 390.522 142.888,390.535 110.509,388.792 106.418 C 388.451 105.618,388.038 103.453,387.874 101.608 C 387.707 99.731,387.331 97.867,387.019 97.380 C 386.713 96.900,386.295 95.405,386.091 94.058 C 385.887 92.710,385.479 91.221,385.183 90.749 C 384.887 90.276,384.535 89.145,384.400 88.235 C 384.265 87.325,383.917 86.219,383.628 85.777 C 383.339 85.335,382.924 84.179,382.707 83.209 C 382.489 82.239,382.088 81.195,381.815 80.888 C 381.542 80.582,381.136 79.647,380.914 78.811 C 380.691 77.975,380.262 77.087,379.961 76.836 C 379.659 76.586,379.412 75.937,379.412 75.394 C 379.412 74.851,378.998 73.847,378.493 73.162 C 377.987 72.477,377.574 71.640,377.574 71.302 C 377.574 70.964,377.265 70.293,376.889 69.811 C 376.512 69.328,376.080 68.520,375.927 68.015 C 375.775 67.509,375.351 66.765,374.985 66.360 C 374.619 65.956,374.206 65.168,374.067 64.609 C 373.928 64.051,373.603 63.472,373.344 63.323 C 373.085 63.173,372.604 62.472,372.276 61.765 C 371.390 59.857,370.506 58.461,369.577 57.504 C 369.122 57.035,368.750 56.395,368.750 56.083 C 368.750 55.770,368.589 55.515,368.392 55.515 C 368.195 55.515,367.772 55.010,367.453 54.392 C 367.134 53.775,366.592 52.964,366.249 52.591 C 365.906 52.218,365.211 51.296,364.706 50.543 C 364.200 49.789,363.415 48.802,362.960 48.349 C 362.505 47.897,362.132 47.419,362.132 47.289 C 362.132 46.646,349.385 33.679,346.181 31.063 C 345.193 30.256,343.986 29.223,343.499 28.768 C 343.012 28.313,342.540 27.941,342.450 27.941 C 342.236 27.941,339.087 25.537,338.397 24.846 C 338.103 24.553,337.549 24.213,337.164 24.091 C 336.780 23.969,336.372 23.627,336.259 23.332 C 336.145 23.036,335.822 22.794,335.540 22.794 C 335.258 22.794,334.403 22.298,333.640 21.691 C 332.876 21.085,332.026 20.588,331.751 20.588 C 331.475 20.588,331.250 20.425,331.250 20.226 C 331.250 20.026,330.636 19.606,329.885 19.292 C 329.134 18.979,328.265 18.493,327.955 18.213 C 327.644 17.933,326.921 17.587,326.349 17.445 C 325.777 17.302,325.224 16.966,325.122 16.698 C 325.019 16.431,324.329 16.015,323.589 15.773 C 322.848 15.532,321.848 15.027,321.366 14.652 C 320.884 14.277,320.179 13.971,319.800 13.971 C 319.421 13.971,318.828 13.640,318.482 13.237 C 318.137 12.833,317.270 12.396,316.556 12.264 C 315.842 12.133,314.887 11.738,314.433 11.385 C 313.980 11.033,312.996 10.630,312.247 10.489 C 311.498 10.349,310.481 9.916,309.988 9.529 C 309.495 9.141,308.577 8.822,307.947 8.821 C 307.317 8.820,306.308 8.493,305.704 8.095 C 305.101 7.698,303.860 7.266,302.947 7.135 C 302.034 7.005,300.771 6.587,300.140 6.207 C 299.477 5.806,298.309 5.515,297.369 5.515 C 296.430 5.515,295.129 5.190,294.287 4.746 C 293.291 4.220,291.728 3.887,289.338 3.691 C 287.236 3.518,285.260 3.129,284.375 2.713 C 282.953 2.045,280.367 2.018,206.064 1.914 L 129.224 1.806 128.091 3.121 " stroke="none" fill="#2464e4" fill-rule="evenodd"></path><path id="path2" d="M126.301 26.794 C 125.937 27.939,125.847 27.941,65.770 27.941 L 7.735 27.941 7.452 28.952 C 6.891 30.958,7.110 149.735,7.675 149.923 C 7.953 150.016,8.532 150.443,8.961 150.873 L 9.743 151.654 39.289 151.728 C 55.539 151.768,68.940 151.906,69.068 152.034 C 69.196 152.162,69.386 199.528,69.489 257.292 C 69.694 371.881,69.558 365.092,71.666 365.871 C 72.122 366.040,72.582 366.509,72.688 366.913 C 72.989 368.066,170.221 368.074,170.221 366.921 C 170.221 366.487,170.663 365.967,171.324 365.625 C 171.930 365.311,172.430 364.769,172.435 364.421 C 172.440 364.072,172.482 359.181,172.527 353.552 C 172.607 343.725,172.640 343.293,173.365 342.706 C 174.070 342.136,172.731 342.103,152.961 342.206 C 141.323 342.267,131.251 342.216,130.579 342.093 C 129.230 341.845,126.951 339.752,126.644 338.478 C 126.539 338.041,126.498 267.578,126.553 181.893 C 126.609 96.209,126.624 26.103,126.587 26.103 C 126.550 26.103,126.421 26.414,126.301 26.794 " stroke="none" fill="#2bacfc" fill-rule="evenodd"></path><path id="path3" d="M10.478 26.721 C 7.844 27.313,7.320 27.663,6.424 29.431 L 5.515 31.226 5.515 89.475 C 5.515 155.170,5.256 149.393,8.286 151.379 L 9.549 152.206 38.708 152.206 C 60.898 152.206,67.973 152.311,68.309 152.647 C 68.650 152.988,68.750 176.971,68.750 258.353 L 68.750 363.619 69.718 365.081 C 70.250 365.886,70.829 366.544,71.005 366.544 C 71.180 366.544,71.324 366.792,71.324 367.096 C 71.324 367.408,71.653 367.647,72.086 367.647 C 73.127 367.647,72.877 366.515,71.708 365.932 C 69.549 364.856,69.695 372.001,69.489 257.292 C 69.386 199.528,69.196 152.162,69.068 152.034 C 68.940 151.906,55.539 151.768,39.289 151.728 L 9.743 151.654 8.961 150.873 C 8.532 150.443,7.953 150.016,7.675 149.923 C 7.110 149.735,6.891 30.958,7.452 28.952 L 7.735 27.941 65.770 27.941 C 124.143 27.941,125.894 27.913,126.252 26.981 C 126.441 26.488,12.652 26.233,10.478 26.721 M173.115 342.887 C 172.719 343.365,172.592 345.677,172.527 353.641 C 172.482 359.221,172.440 364.072,172.435 364.421 C 172.430 364.769,171.930 365.311,171.324 365.625 C 170.167 366.223,169.778 367.647,170.772 367.647 C 171.075 367.647,171.324 367.399,171.324 367.096 C 171.324 366.792,171.487 366.544,171.687 366.544 C 173.443 366.544,173.851 364.122,173.968 352.981 C 174.030 347.095,173.977 342.279,173.850 342.279 C 173.723 342.279,173.392 342.553,173.115 342.887 " stroke="none" fill="#4db9fc" fill-rule="evenodd"></path><path id="path4" d="M129.412 0.551 C 129.412 0.855,129.250 1.103,129.053 1.103 C 128.856 1.103,128.153 1.698,127.491 2.425 L 126.287 3.748 126.103 14.833 L 125.919 25.919 67.831 26.103 C 20.446 26.253,9.607 26.377,9.007 26.774 L 8.272 27.261 9.007 26.958 C 9.412 26.791,36.048 26.572,68.199 26.471 L 126.654 26.287 126.838 15.257 L 127.022 4.228 128.157 3.017 L 129.292 1.806 206.098 1.914 C 280.368 2.018,282.953 2.045,284.375 2.713 C 285.260 3.129,287.236 3.518,289.338 3.691 C 291.728 3.887,293.291 4.220,294.287 4.746 C 295.129 5.190,296.430 5.515,297.369 5.515 C 298.309 5.515,299.477 5.806,300.140 6.207 C 300.771 6.587,302.034 7.005,302.947 7.135 C 303.860 7.266,305.101 7.698,305.704 8.095 C 306.308 8.493,307.317 8.820,307.947 8.821 C 308.577 8.822,309.495 9.141,309.988 9.529 C 310.481 9.916,311.498 10.349,312.247 10.489 C 312.996 10.630,313.980 11.033,314.433 11.385 C 314.887 11.738,315.842 12.133,316.556 12.264 C 317.270 12.396,318.137 12.833,318.482 13.237 C 318.828 13.640,319.421 13.971,319.800 13.971 C 320.179 13.971,320.884 14.277,321.366 14.652 C 321.848 15.027,322.848 15.532,323.589 15.773 C 324.329 16.015,325.019 16.431,325.122 16.698 C 325.224 16.966,325.777 17.302,326.349 17.445 C 326.921 17.587,327.644 17.933,327.955 18.213 C 328.265 18.493,329.134 18.979,329.885 19.292 C 330.636 19.606,331.250 20.026,331.250 20.226 C 331.250 20.425,331.475 20.588,331.751 20.588 C 332.026 20.588,332.876 21.085,333.640 21.691 C 334.403 22.298,335.258 22.794,335.540 22.794 C 335.822 22.794,336.145 23.036,336.259 23.332 C 336.372 23.627,336.780 23.969,337.164 24.091 C 337.549 24.213,338.103 24.553,338.397 24.846 C 339.087 25.537,342.236 27.941,342.450 27.941 C 342.540 27.941,343.012 28.313,343.499 28.768 C 343.986 29.223,345.193 30.256,346.181 31.063 C 349.385 33.679,362.132 46.646,362.132 47.289 C 362.132 47.419,362.505 47.897,362.960 48.349 C 363.415 48.802,364.200 49.789,364.706 50.543 C 365.211 51.296,365.906 52.218,366.249 52.591 C 366.592 52.964,367.134 53.775,367.453 54.392 C 367.772 55.010,368.195 55.515,368.392 55.515 C 368.589 55.515,368.750 55.770,368.750 56.083 C 368.750 56.395,369.122 57.035,369.577 57.504 C 370.506 58.461,371.390 59.857,372.276 61.765 C 372.604 62.472,373.085 63.173,373.344 63.323 C 373.603 63.472,373.928 64.051,374.067 64.609 C 374.206 65.168,374.619 65.956,374.985 66.360 C 375.351 66.765,375.775 67.509,375.927 68.015 C 376.080 68.520,376.512 69.328,376.889 69.811 C 377.265 70.293,377.574 70.964,377.574 71.302 C 377.574 71.640,377.987 72.477,378.493 73.162 C 378.998 73.847,379.412 74.851,379.412 75.394 C 379.412 75.937,379.659 76.586,379.961 76.836 C 380.262 77.087,380.691 77.975,380.914 78.811 C 381.136 79.647,381.542 80.582,381.815 80.888 C 382.088 81.195,382.489 82.239,382.707 83.209 C 382.924 84.179,383.339 85.335,383.628 85.777 C 383.917 86.219,384.265 87.325,384.400 88.235 C 384.535 89.145,384.887 90.276,385.183 90.749 C 385.479 91.221,385.887 92.710,386.091 94.058 C 386.295 95.405,386.713 96.900,387.019 97.380 C 387.331 97.867,387.707 99.731,387.874 101.608 C 388.038 103.453,388.451 105.618,388.792 106.418 C 390.535 110.509,390.522 142.888,388.776 146.896 C 388.428 147.693,388.018 149.877,387.865 151.749 C 387.711 153.621,387.376 155.405,387.120 155.714 C 386.864 156.022,386.436 157.533,386.168 159.072 C 385.900 160.610,385.429 162.148,385.120 162.489 C 384.811 162.830,384.559 163.682,384.559 164.381 C 384.559 165.081,384.222 166.309,383.810 167.110 C 383.398 167.911,382.892 169.308,382.686 170.215 C 382.480 171.121,382.082 172.116,381.802 172.426 C 381.522 172.736,381.129 173.718,380.928 174.609 C 380.728 175.501,380.305 176.375,379.988 176.552 C 379.671 176.730,379.412 177.331,379.412 177.888 C 379.412 178.445,378.998 179.462,378.493 180.147 C 377.987 180.832,377.574 181.669,377.574 182.007 C 377.574 182.345,377.253 183.029,376.861 183.527 C 376.469 184.025,376.041 184.863,375.909 185.388 C 375.777 185.913,375.353 186.629,374.967 186.978 C 374.581 187.328,374.265 187.919,374.265 188.292 C 374.265 188.665,373.938 189.298,373.538 189.697 C 373.138 190.097,372.550 190.966,372.231 191.628 C 371.211 193.745,370.407 195.052,369.568 195.952 C 369.118 196.435,368.750 196.982,368.750 197.167 C 368.750 197.458,368.124 198.332,366.508 200.293 C 366.291 200.556,365.922 201.137,365.686 201.585 C 365.450 202.033,364.926 202.759,364.522 203.198 C 364.118 203.638,363.456 204.441,363.051 204.984 C 362.647 205.526,362.000 206.307,361.614 206.720 C 361.229 207.132,359.970 208.560,358.818 209.893 C 355.033 214.273,350.759 218.414,345.122 223.162 C 344.762 223.465,344.080 224.085,343.607 224.540 C 343.134 224.995,342.568 225.368,342.350 225.368 C 342.132 225.368,341.737 225.672,341.473 226.045 C 341.209 226.417,340.579 226.936,340.074 227.198 C 339.568 227.461,338.906 227.900,338.603 228.174 C 337.236 229.410,335.707 230.515,335.364 230.515 C 335.158 230.515,334.603 230.845,334.130 231.248 C 332.919 232.283,330.543 233.824,330.159 233.824 C 329.981 233.824,329.357 234.226,328.772 234.719 C 328.187 235.211,327.276 235.722,326.749 235.855 C 326.221 235.987,325.503 236.412,325.154 236.798 C 324.804 237.184,324.245 237.500,323.912 237.500 C 323.578 237.500,322.744 237.914,322.059 238.419 C 321.374 238.925,320.457 239.338,320.022 239.338 C 319.587 239.338,318.949 239.650,318.604 240.031 C 318.259 240.413,317.476 240.825,316.863 240.947 C 316.250 241.070,315.327 241.502,314.810 241.909 C 314.294 242.315,313.420 242.647,312.868 242.647 C 312.316 242.647,311.450 242.972,310.945 243.370 C 310.439 243.768,309.300 244.203,308.413 244.338 C 307.527 244.473,306.509 244.837,306.152 245.148 C 305.795 245.459,304.581 245.838,303.454 245.991 C 302.327 246.144,301.101 246.544,300.730 246.880 C 300.353 247.221,299.009 247.621,297.689 247.784 C 296.388 247.946,294.928 248.326,294.445 248.629 C 293.961 248.932,292.287 249.289,290.724 249.421 C 289.161 249.553,287.176 249.982,286.313 250.374 C 285.222 250.869,283.901 251.091,281.985 251.102 C 280.469 251.111,276.994 251.397,274.265 251.739 C 270.305 252.234,265.568 252.377,250.844 252.445 C 238.329 252.502,232.145 252.659,231.635 252.932 C 230.883 253.334,230.882 253.398,230.878 295.142 C 230.874 341.516,230.962 339.276,229.089 340.709 L 227.757 341.728 201.138 341.815 C 186.498 341.863,174.421 342.001,174.300 342.121 C 174.180 342.241,174.030 347.144,173.968 353.016 C 173.874 361.859,173.757 363.859,173.285 364.659 L 172.714 365.625 173.489 364.757 C 174.238 363.919,174.265 363.540,174.270 353.728 C 174.273 348.139,174.407 343.359,174.568 343.106 C 174.797 342.745,180.682 342.626,201.677 342.554 L 228.493 342.463 229.871 341.409 C 230.630 340.829,231.250 340.074,231.250 339.733 C 231.250 339.391,231.493 338.790,231.790 338.397 C 232.257 337.780,232.331 332.032,232.341 295.687 L 232.353 253.690 233.180 253.503 C 233.635 253.400,243.686 253.257,255.515 253.186 C 274.043 253.075,277.328 252.973,279.228 252.453 C 280.441 252.121,282.294 251.847,283.346 251.844 C 285.385 251.838,288.913 251.203,289.522 250.733 C 289.724 250.577,290.965 250.332,292.279 250.189 C 293.594 250.045,295.393 249.613,296.278 249.229 C 297.163 248.844,298.322 248.522,298.852 248.513 C 299.382 248.504,300.478 248.242,301.287 247.931 C 302.096 247.620,303.790 247.069,305.052 246.708 C 306.314 246.347,307.555 245.886,307.809 245.684 C 308.064 245.482,309.132 245.115,310.184 244.869 C 311.236 244.622,312.290 244.187,312.527 243.902 C 312.764 243.616,313.244 243.382,313.593 243.382 C 313.943 243.382,315.007 242.969,315.957 242.463 C 316.908 241.958,317.903 241.544,318.168 241.544 C 318.434 241.544,319.045 241.237,319.528 240.862 C 320.010 240.487,321.012 239.982,321.754 239.741 C 322.496 239.499,323.288 239.077,323.515 238.804 C 323.742 238.531,324.375 238.196,324.923 238.059 C 325.471 237.922,326.197 237.560,326.537 237.254 C 326.877 236.947,327.649 236.422,328.252 236.087 C 330.190 235.010,333.559 232.972,336.155 231.306 C 336.895 230.831,337.500 230.293,337.500 230.111 C 337.500 229.929,337.742 229.779,338.039 229.779 C 338.335 229.779,339.143 229.283,339.834 228.676 C 340.524 228.070,341.235 227.574,341.412 227.574 C 341.590 227.574,341.942 227.243,342.194 226.838 C 342.447 226.434,342.900 226.103,343.202 226.103 C 343.503 226.103,343.750 225.935,343.750 225.730 C 343.750 225.525,344.231 225.065,344.818 224.707 C 347.775 222.909,358.325 212.562,361.765 208.088 C 362.270 207.430,363.097 206.426,363.603 205.857 C 364.108 205.288,365.267 203.813,366.176 202.579 C 367.086 201.345,368.203 199.864,368.658 199.288 C 369.113 198.711,369.485 198.082,369.485 197.890 C 369.485 197.698,369.830 197.229,370.251 196.848 C 370.672 196.466,371.248 195.655,371.530 195.044 C 372.089 193.836,372.560 193.055,373.751 191.360 C 374.178 190.754,374.657 189.844,374.817 189.340 C 374.976 188.835,375.306 188.256,375.548 188.053 C 375.791 187.850,376.215 187.105,376.490 186.397 C 376.766 185.689,377.205 184.892,377.466 184.625 C 377.727 184.358,378.048 183.696,378.181 183.154 C 378.313 182.613,378.727 181.775,379.100 181.292 C 379.474 180.810,379.779 180.214,379.779 179.968 C 379.779 179.722,380.174 178.779,380.656 177.873 C 381.138 176.966,381.645 175.712,381.783 175.086 C 381.920 174.460,382.257 173.761,382.532 173.534 C 382.806 173.306,383.144 172.426,383.283 171.578 C 383.422 170.730,383.766 169.776,384.047 169.457 C 384.328 169.138,384.754 167.897,384.994 166.699 C 385.234 165.502,385.632 164.320,385.878 164.072 C 386.124 163.825,386.440 162.749,386.580 161.682 C 386.719 160.616,387.074 159.247,387.367 158.642 C 387.661 158.037,388.070 156.382,388.278 154.966 C 388.485 153.549,388.901 151.645,389.201 150.735 C 389.502 149.825,389.912 147.178,390.113 144.853 C 390.314 142.528,390.677 139.715,390.919 138.603 C 391.518 135.858,391.525 116.551,390.928 114.522 C 390.690 113.713,390.318 110.935,390.102 108.349 C 389.886 105.763,389.484 103.199,389.208 102.651 C 388.932 102.103,388.600 100.596,388.470 99.303 C 388.341 98.009,387.983 96.446,387.675 95.828 C 387.367 95.210,386.927 93.565,386.697 92.172 C 386.467 90.779,386.077 89.438,385.830 89.192 C 385.584 88.945,385.264 88.009,385.120 87.111 C 384.975 86.213,384.566 84.972,384.210 84.354 C 383.855 83.736,383.443 82.578,383.295 81.780 C 383.147 80.983,382.813 80.083,382.552 79.779 C 382.292 79.476,381.867 78.570,381.608 77.766 C 381.350 76.962,380.833 75.804,380.460 75.193 C 380.087 74.581,379.782 73.814,379.781 73.487 C 379.780 73.160,379.470 72.499,379.092 72.016 C 378.714 71.534,378.291 70.619,378.152 69.983 C 378.013 69.347,377.587 68.544,377.206 68.199 C 376.824 67.853,376.411 67.109,376.287 66.544 C 376.163 65.979,375.740 65.226,375.347 64.871 C 374.954 64.515,374.632 63.939,374.632 63.591 C 374.632 63.243,374.359 62.731,374.024 62.453 C 373.689 62.176,373.191 61.411,372.916 60.754 C 372.641 60.097,372.266 59.559,372.082 59.559 C 371.899 59.559,371.564 59.000,371.338 58.317 C 371.113 57.633,370.604 56.780,370.207 56.421 C 369.810 56.062,369.485 55.586,369.485 55.362 C 369.485 55.139,369.154 54.750,368.750 54.497 C 368.346 54.245,368.015 53.816,368.015 53.546 C 368.015 53.275,367.725 52.707,367.371 52.282 C 367.017 51.858,365.669 50.178,364.374 48.550 C 363.080 46.921,361.880 45.588,361.709 45.588 C 361.537 45.588,361.397 45.403,361.397 45.177 C 361.397 43.273,344.154 27.272,338.265 23.713 C 337.931 23.511,337.415 23.136,337.119 22.880 C 335.989 21.901,333.967 20.581,332.996 20.189 C 332.440 19.965,331.985 19.634,331.985 19.454 C 331.985 19.275,331.448 18.870,330.790 18.555 C 330.133 18.240,328.768 17.502,327.757 16.914 C 326.746 16.327,325.257 15.510,324.449 15.097 C 323.640 14.685,322.730 14.197,322.426 14.012 C 321.148 13.235,317.911 11.765,317.479 11.765 C 317.222 11.765,316.603 11.444,316.105 11.052 C 315.607 10.660,314.716 10.225,314.125 10.086 C 313.535 9.946,312.555 9.536,311.949 9.175 C 311.342 8.813,310.184 8.400,309.375 8.256 C 308.566 8.113,307.654 7.777,307.347 7.511 C 307.040 7.245,305.965 6.846,304.957 6.626 C 303.950 6.405,302.595 5.978,301.947 5.676 C 301.298 5.375,299.851 4.959,298.730 4.751 C 297.609 4.544,296.117 4.134,295.414 3.841 C 294.711 3.547,292.932 3.153,291.461 2.966 C 289.990 2.779,287.886 2.367,286.784 2.050 C 285.682 1.734,282.746 1.366,280.258 1.233 C 276.830 1.049,275.735 0.871,275.735 0.495 C 275.735 0.082,263.684 0.000,202.574 0.000 C 137.786 0.000,129.412 0.063,129.412 0.551 M6.347 28.768 L 5.331 30.331 5.236 89.172 C 5.152 140.602,5.209 148.103,5.684 148.730 C 5.982 149.125,6.232 149.251,6.238 149.011 C 6.245 148.770,6.085 148.471,5.882 148.346 C 5.640 148.196,5.515 128.240,5.515 89.672 L 5.515 31.226 6.423 29.434 C 6.922 28.449,7.542 27.557,7.801 27.453 C 8.158 27.310,8.162 27.257,7.817 27.235 C 7.567 27.219,6.905 27.909,6.347 28.768 M8.006 151.507 L 8.844 152.390 38.521 152.574 L 68.199 152.757 68.384 258.640 C 68.486 316.875,68.610 364.563,68.660 364.614 C 68.709 364.665,68.949 364.706,69.191 364.706 C 69.534 364.706,69.534 364.608,69.191 364.265 C 68.850 363.924,68.750 339.918,68.750 258.456 C 68.750 176.993,68.650 152.988,68.309 152.647 C 67.973 152.311,60.891 152.206,38.678 152.206 L 9.489 152.206 8.329 151.415 L 7.169 150.623 8.006 151.507 M69.485 365.132 C 69.485 365.224,69.899 365.859,70.404 366.544 C 70.910 367.229,71.324 367.601,71.324 367.370 C 71.324 367.139,70.910 366.503,70.404 365.958 C 69.899 365.412,69.485 365.041,69.485 365.132 " stroke="none" fill="none" fill-rule="evenodd"></path></g></svg>
