<svg width="19" height="16" viewBox="0 0 19 16" fill="none" xmlns="http://www.w3.org/2000/svg">
<path d="M9.54293 4.44539L9.58278 5.10248L8.91864 5.02202C6.50115 4.71359 4.38917 3.66761 2.59597 1.91091L1.7193 1.03927L1.49349 1.68294C1.01531 3.11781 1.32082 4.63313 2.31703 5.65229C2.84835 6.2155 2.7288 6.29596 1.81228 5.96071C1.49349 5.85343 1.21455 5.77297 1.18799 5.8132C1.09501 5.90707 1.4138 7.12738 1.66617 7.61013C2.01153 8.28063 2.71552 8.93772 3.48593 9.3266L4.13679 9.63503L3.36638 9.64844C2.62254 9.64844 2.59597 9.66185 2.67567 9.94346C2.94133 10.8151 3.99068 11.7404 5.15957 12.1427L5.98311 12.4243L5.26584 12.8534C4.2032 13.4703 2.95461 13.8189 1.70602 13.8458C1.10829 13.8592 0.616821 13.9128 0.616821 13.953C0.616821 14.0871 2.23734 14.8381 3.18042 15.1331C6.00968 16.0048 9.37025 15.6293 11.894 14.1408C13.6872 13.0814 15.4804 10.976 16.3172 8.93772C16.7688 7.85151 17.2204 5.86684 17.2204 4.91474C17.2204 4.29788 17.2603 4.21742 18.0041 3.47988C18.4425 3.05076 18.8542 2.58141 18.9339 2.44731C19.0668 2.19252 19.0535 2.19252 18.3761 2.42049C17.247 2.82279 17.0876 2.76915 17.6455 2.1657C18.0573 1.73659 18.5487 0.95881 18.5487 0.730841C18.5487 0.690611 18.3495 0.75766 18.1237 0.87835C17.8846 1.01245 17.3533 1.2136 16.9548 1.33429L16.2375 1.56226L15.5867 1.11973C15.228 0.87835 14.7233 0.610151 14.4576 0.529692C13.7802 0.341952 12.7441 0.368772 12.1331 0.583331C10.4727 1.18678 9.42339 2.74233 9.54293 4.44539Z" fill="#787B89"/>
</svg>
